<svg width="20" height="20" viewBox="0 0 20 20" fill="none" xmlns="http://www.w3.org/2000/svg">
<g id="calendar-day" clip-path="url(#clip0_1995_285275)">
<g id="Vector">
<path d="M20 4C20 3.46957 19.7893 2.96086 19.4142 2.58579C19.0391 2.21071 18.5304 2 18 2H16V1C16 0.734784 15.8946 0.48043 15.7071 0.292893C15.5196 0.105357 15.2652 0 15 0C14.7348 0 14.4804 0.105357 14.2929 0.292893C14.1054 0.48043 14 0.734784 14 1V2H11V1C11 0.734784 10.8946 0.48043 10.7071 0.292893C10.5196 0.105357 10.2652 0 10 0C9.73478 0 9.48043 0.105357 9.29289 0.292893C9.10536 0.48043 9 0.734784 9 1V2H6V1C6 0.734784 5.89464 0.48043 5.70711 0.292893C5.51957 0.105357 5.26522 0 5 0C4.73478 0 4.48043 0.105357 4.29289 0.292893C4.10536 0.48043 4 0.734784 4 1V2H2C1.46957 2 0.960859 2.21071 0.585786 2.58579C0.210714 2.96086 0 3.46957 0 4V6H20V4Z" fill="#1F2A37"/>
<path d="M0 18C0 18.5304 0.210714 19.0391 0.585786 19.4142C0.960859 19.7893 1.46957 20 2 20H18C18.5304 20 19.0391 19.7893 19.4142 19.4142C19.7893 19.0391 20 18.5304 20 18V8H0V18ZM5 10H15C15.2652 10 15.5196 10.1054 15.7071 10.2929C15.8946 10.4804 16 10.7348 16 11C16 11.2652 15.8946 11.5196 15.7071 11.7071C15.5196 11.8946 15.2652 12 15 12H5C4.73478 12 4.48043 11.8946 4.29289 11.7071C4.10536 11.5196 4 11.2652 4 11C4 10.7348 4.10536 10.4804 4.29289 10.2929C4.48043 10.1054 4.73478 10 5 10Z" fill="#1F2A37"/>
</g>
</g>
<defs>
<clipPath id="clip0_1995_285275">
<rect width="20" height="20" fill="white"/>
</clipPath>
</defs>
</svg>
