<svg width="16" height="17" viewBox="0 0 16 17" fill="none" xmlns="http://www.w3.org/2000/svg">
<g id="camera-foto">
<path id="Vector" d="M13.6 3.40165L12.4944 3.40165L12.3576 3.13341C12.1594 2.7418 11.8532 2.41243 11.4739 2.1826C11.0945 1.95277 10.6571 1.83168 10.2112 1.83302L5.7888 1.83302C5.34285 1.83159 4.9054 1.95265 4.52604 2.18248C4.14668 2.41232 3.84057 2.74174 3.6424 3.13341L3.5056 3.40165L2.4 3.40165C1.76348 3.40165 1.15303 3.64954 0.702944 4.09081C0.252856 4.53207 0 5.13055 0 5.75459L0 13.5977C0 14.0137 0.168571 14.4127 0.468629 14.7069C0.768687 15.0011 1.17565 15.1663 1.6 15.1663L14.4 15.1663C14.8243 15.1663 15.2313 15.0011 15.5314 14.7069C15.8314 14.4127 16 14.0137 16 13.5977V5.75459C16 5.13055 15.7471 4.53207 15.2971 4.09081C14.847 3.64954 14.2365 3.40165 13.6 3.40165ZM10.8 8.89184C10.8 9.43477 10.6358 9.9655 10.3281 10.4169C10.0204 10.8684 9.58315 11.2202 9.07151 11.428C8.55988 11.6357 7.99689 11.6901 7.45375 11.5842C6.9106 11.4783 6.41169 11.2168 6.0201 10.8329C5.62851 10.449 5.36184 9.95988 5.2538 9.42738C5.14576 8.89488 5.20121 8.34294 5.41314 7.84134C5.62506 7.33973 5.98395 6.91101 6.4444 6.60937C6.90486 6.30774 7.44621 6.14674 8 6.14674C8.74261 6.14674 9.4548 6.43596 9.9799 6.95076C10.505 7.46557 10.8 8.16379 10.8 8.89184Z" fill="#FF8A4C"/>
</g>
</svg>
