<svg width="20" height="20" viewBox="0 0 20 20" fill="none" xmlns="http://www.w3.org/2000/svg">
<g clip-path="url(#clip0_1599_32977)">
<path d="M18 4.90733H16V9.99992C16 11.0804 15.5786 12.1167 14.8284 12.8807C14.0783 13.6448 13.0609 14.074 12 14.074H9L6.846 15.7189C7.17993 15.9713 7.58418 16.1086 8 16.111H11.667L15.4 18.9629C15.5731 19.0951 15.7836 19.1666 16 19.1666C16.2652 19.1666 16.5196 19.0593 16.7071 18.8683C16.8946 18.6773 17 18.4182 17 18.1481V16.111H18C18.5304 16.111 19.0391 15.8964 19.4142 15.5144C19.7893 15.1324 20 14.6142 20 14.074V6.94436C20 6.40411 19.7893 5.88598 19.4142 5.50396C19.0391 5.12194 18.5304 4.90733 18 4.90733Z" fill="#6B7280"/>
<path d="M12 0.833252H2C1.46957 0.833252 0.960859 1.04787 0.585786 1.42989C0.210714 1.8119 0 2.33003 0 2.87029V9.99992C0 10.5402 0.210714 11.0583 0.585786 11.4403C0.960859 11.8223 1.46957 12.037 2 12.037H3V14.074C3 14.2631 3.05171 14.4486 3.14935 14.6095C3.24698 14.7704 3.38668 14.9004 3.55279 14.985C3.71889 15.0696 3.90484 15.1054 4.08981 15.0884C4.27477 15.0714 4.45143 15.0023 4.6 14.8888L8.333 12.037H12C12.5304 12.037 13.0391 11.8223 13.4142 11.4403C13.7893 11.0583 14 10.5402 14 9.99992V2.87029C14 2.33003 13.7893 1.8119 13.4142 1.42989C13.0391 1.04787 12.5304 0.833252 12 0.833252Z" fill="#6B7280"/>
</g>
<defs>
<clipPath id="clip0_1599_32977">
<rect width="20" height="20" fill="white"/>
</clipPath>
</defs>
</svg>
