<svg width="16" height="16" viewBox="0 0 16 16" fill="none" xmlns="http://www.w3.org/2000/svg">
<g clip-path="url(#clip0_624_22276)">
<path d="M14.4 3.92595H12.8V8.00002C12.8 8.86443 12.4629 9.69343 11.8627 10.3047C11.2626 10.9159 10.4487 11.2593 9.6 11.2593H7.2L5.4768 12.5752C5.74395 12.7771 6.06734 12.887 6.4 12.8889H9.3336L12.32 15.1704C12.4585 15.2762 12.6269 15.3334 12.8 15.3334C13.0122 15.3334 13.2157 15.2475 13.3657 15.0947C13.5157 14.9419 13.6 14.7346 13.6 14.5185V12.8889H14.4C14.8243 12.8889 15.2313 12.7172 15.5314 12.4116C15.8314 12.106 16 11.6915 16 11.2593V5.55558C16 5.12337 15.8314 4.70887 15.5314 4.40325C15.2313 4.09764 14.8243 3.92595 14.4 3.92595Z" fill="#9CA3AF"/>
<path d="M9.6 0.666687H1.6C1.17565 0.666687 0.768687 0.83838 0.468629 1.14399C0.168571 1.44961 0 1.86411 0 2.29632V8.00002C0 8.43222 0.168571 8.84673 0.468629 9.15234C0.768687 9.45796 1.17565 9.62965 1.6 9.62965H2.4V11.2593C2.4 11.4106 2.44137 11.5589 2.51948 11.6877C2.59759 11.8164 2.70934 11.9204 2.84223 11.9881C2.97511 12.0557 3.12388 12.0844 3.27184 12.0708C3.41981 12.0572 3.56114 12.0019 3.68 11.9111L6.6664 9.62965H9.6C10.0243 9.62965 10.4313 9.45796 10.7314 9.15234C11.0314 8.84673 11.2 8.43222 11.2 8.00002V2.29632C11.2 1.86411 11.0314 1.44961 10.7314 1.14399C10.4313 0.83838 10.0243 0.666687 9.6 0.666687Z" fill="#9CA3AF"/>
</g>
<defs>
<clipPath id="clip0_624_22276">
<rect width="16" height="16" fill="white"/>
</clipPath>
</defs>
</svg>
