<svg width="10" height="11" viewBox="0 0 10 11" fill="none" xmlns="http://www.w3.org/2000/svg">
<g id="check">
<g id="Vector">
<mask id="path-1-inside-1_2020_1234" fill="white">
<path d="M3.5777 9.66682C3.4145 9.6676 3.25752 9.59095 3.14033 9.45324L0.18872 5.98139C0.129889 5.91176 0.082947 5.82878 0.0505741 5.73716C0.0182012 5.64555 0.00103144 5.5471 4.5112e-05 5.44745C-0.00194686 5.24618 0.0621007 5.0522 0.178098 4.90817C0.294096 4.76415 0.452541 4.68188 0.618578 4.67946C0.784615 4.67705 0.944643 4.75469 1.06346 4.8953L3.5802 7.8544L8.9361 1.54917C9.05508 1.40856 9.21526 1.331 9.38142 1.33356C9.54757 1.33611 9.70608 1.41858 9.82208 1.5628C9.93808 1.70703 10.0021 1.9012 9.99995 2.10261C9.99784 2.30402 9.92981 2.49616 9.81083 2.63677L4.01507 9.45324C3.89789 9.59095 3.74091 9.6676 3.5777 9.66682Z"/>
</mask>
<path d="M3.5777 9.66682C3.4145 9.6676 3.25752 9.59095 3.14033 9.45324L0.18872 5.98139C0.129889 5.91176 0.082947 5.82878 0.0505741 5.73716C0.0182012 5.64555 0.00103144 5.5471 4.5112e-05 5.44745C-0.00194686 5.24618 0.0621007 5.0522 0.178098 4.90817C0.294096 4.76415 0.452541 4.68188 0.618578 4.67946C0.784615 4.67705 0.944643 4.75469 1.06346 4.8953L3.5802 7.8544L8.9361 1.54917C9.05508 1.40856 9.21526 1.331 9.38142 1.33356C9.54757 1.33611 9.70608 1.41858 9.82208 1.5628C9.93808 1.70703 10.0021 1.9012 9.99995 2.10261C9.99784 2.30402 9.92981 2.49616 9.81083 2.63677L4.01507 9.45324C3.89789 9.59095 3.74091 9.6676 3.5777 9.66682Z" fill="#1F2A37"/>
<path d="M3.5777 9.66682L3.58488 8.16684L3.5777 8.16681L3.57052 8.16684L3.5777 9.66682ZM3.14033 9.45324L1.99751 10.4248L1.99797 10.4254L3.14033 9.45324ZM0.18872 5.98139L-0.957019 6.94953L-0.954101 6.95296L0.18872 5.98139ZM4.5112e-05 5.44745L-1.49988 5.46229L4.5112e-05 5.44745ZM1.06346 4.8953L-0.0822825 5.86344L-0.0791645 5.86711L1.06346 4.8953ZM3.5802 7.8544L2.43758 8.82621L3.58092 10.1705L4.72343 8.8255L3.5802 7.8544ZM8.9361 1.54917L10.0793 2.52027L10.0812 2.51809L8.9361 1.54917ZM9.81083 2.63677L10.9536 3.60842L10.9559 3.6057L9.81083 2.63677ZM4.01507 9.45324L5.15744 10.4254L5.15783 10.4249L4.01507 9.45324ZM3.57052 8.16684C3.90071 8.16526 4.14814 8.323 4.2827 8.48113L1.99797 10.4254C2.3669 10.8589 2.92828 11.1699 3.58488 11.1668L3.57052 8.16684ZM4.28316 8.48166L1.33154 5.00981L-0.954101 6.95296L1.99751 10.4248L4.28316 8.48166ZM1.33445 5.01325C1.40028 5.09115 1.44081 5.16931 1.46487 5.2374L-1.36372 6.23692C-1.27492 6.48824 -1.1405 6.73238 -0.957014 6.94953L1.33445 5.01325ZM1.46487 5.2374C1.48898 5.30562 1.49937 5.37131 1.49997 5.4326L-1.49988 5.46229C-1.4973 5.72289 -1.45257 5.98548 -1.36372 6.23692L1.46487 5.2374ZM1.49997 5.4326C1.50109 5.54582 1.468 5.69797 1.34632 5.84906L-0.990121 3.96729C-1.3438 4.40642 -1.50499 4.94654 -1.49988 5.46229L1.49997 5.4326ZM1.34632 5.84906C1.2183 6.008 0.974902 6.17444 0.64039 6.17931L0.596766 3.17962C-0.0698197 3.18932 -0.63011 3.52029 -0.990121 3.96729L1.34632 5.84906ZM0.64039 6.17931C0.304767 6.18419 0.0531651 6.02372 -0.0822766 5.86344L2.20919 3.92716C1.83612 3.48565 1.26446 3.16991 0.596766 3.17962L0.64039 6.17931ZM-0.0791645 5.86711L2.43758 8.82621L4.72282 6.88259L2.20608 3.92349L-0.0791645 5.86711ZM4.72343 8.8255L10.0793 2.52027L7.79287 0.578069L2.43698 6.8833L4.72343 8.8255ZM10.0812 2.51809C9.94559 2.67832 9.69386 2.83854 9.35834 2.83338L9.4045 -0.166265C8.73666 -0.176541 8.16456 0.138799 7.79103 0.580242L10.0812 2.51809ZM9.35834 2.83338C9.02399 2.82824 8.78094 2.66169 8.65322 2.50289L10.9909 0.622712C10.6312 0.175458 10.0712 -0.156007 9.4045 -0.166265L9.35834 2.83338ZM8.65322 2.50289C8.53181 2.35193 8.49885 2.19998 8.50003 2.0869L11.4999 2.11832C11.5053 1.60242 11.3443 1.06212 10.9909 0.622712L8.65322 2.50289ZM8.50003 2.0869C8.50122 1.97393 8.53745 1.81949 8.66577 1.66785L10.9559 3.6057C11.3222 3.17283 11.4945 2.63411 11.4999 2.11832L8.50003 2.0869ZM8.66807 1.66513L2.87231 8.4816L5.15783 10.4249L10.9536 3.60842L8.66807 1.66513ZM2.87271 8.48113C3.00727 8.323 3.25469 8.16526 3.58488 8.16684L3.57052 11.1668C4.22713 11.1699 4.78851 10.8589 5.15744 10.4254L2.87271 8.48113Z" fill="white" mask="url(#path-1-inside-1_2020_1234)"/>
</g>
</g>
</svg>
