<svg width="10" height="10" viewBox="0 0 10 10" fill="none" xmlns="http://www.w3.org/2000/svg">
<g id="chevron-down">
<path id="Vector" d="M5.01106 7.5C4.77238 7.49995 4.5435 7.4123 4.37476 7.25633L0.77476 3.92981C0.6888 3.8531 0.620236 3.76133 0.573068 3.65987C0.5259 3.55841 0.501072 3.44928 0.500034 3.33886C0.498996 3.22843 0.521767 3.11892 0.56702 3.01672C0.612272 2.91452 0.6791 2.82166 0.763604 2.74358C0.848107 2.6655 0.948594 2.60374 1.0592 2.56193C1.16981 2.52011 1.28832 2.49907 1.40782 2.50003C1.52732 2.50099 1.64542 2.52393 1.75522 2.56752C1.86503 2.6111 1.96434 2.67446 2.04736 2.75389L5.01106 5.49245L7.97476 2.75389C8.1445 2.6024 8.37184 2.51858 8.60782 2.52047C8.8438 2.52237 9.06953 2.60983 9.2364 2.76402C9.40326 2.91821 9.49792 3.12679 9.49997 3.34484C9.50202 3.56289 9.4113 3.77296 9.24736 3.92981L5.64736 7.25633C5.47862 7.4123 5.24973 7.49995 5.01106 7.5V7.5Z" fill="#111928"/>
</g>
</svg>
