<svg width="12" height="13" viewBox="0 0 12 13" fill="none" xmlns="http://www.w3.org/2000/svg">
<g id="circle-plus" clip-path="url(#clip0_2392_26459)">
<path id="Vector" d="M6 0.5C4.81331 0.5 3.65328 0.851894 2.66658 1.51118C1.67989 2.17047 0.910851 3.10754 0.456725 4.2039C0.00259969 5.30025 -0.11622 6.50665 0.115291 7.67054C0.346802 8.83442 0.918247 9.90352 1.75736 10.7426C2.59648 11.5818 3.66557 12.1532 4.82946 12.3847C5.99335 12.6162 7.19974 12.4974 8.2961 12.0433C9.39246 11.5891 10.3295 10.8201 10.9888 9.83342C11.6481 8.84672 12 7.68669 12 6.5C11.9982 4.90926 11.3654 3.38421 10.2406 2.25939C9.11579 1.13457 7.59073 0.501839 6 0.5ZM8.67916 7.13158H6.63158V9.17916C6.63158 9.34666 6.56504 9.5073 6.44659 9.62575C6.32815 9.74419 6.16751 9.81073 6 9.81073C5.8325 9.81073 5.67185 9.74419 5.55341 9.62575C5.43496 9.5073 5.36842 9.34666 5.36842 9.17916V7.13158H3.32084C3.15334 7.13158 2.99269 7.06504 2.87425 6.94659C2.75581 6.82815 2.68927 6.6675 2.68927 6.5C2.68927 6.33249 2.75581 6.17185 2.87425 6.0534C2.99269 5.93496 3.15334 5.86842 3.32084 5.86842H5.36842V3.82084C5.36842 3.65334 5.43496 3.49269 5.55341 3.37425C5.67185 3.2558 5.8325 3.18926 6 3.18926C6.16751 3.18926 6.32815 3.2558 6.44659 3.37425C6.56504 3.49269 6.63158 3.65334 6.63158 3.82084V5.86842H8.67916C8.84666 5.86842 9.00731 5.93496 9.12575 6.0534C9.2442 6.17185 9.31074 6.33249 9.31074 6.5C9.31074 6.6675 9.2442 6.82815 9.12575 6.94659C9.00731 7.06504 8.84666 7.13158 8.67916 7.13158Z" fill="white"/>
</g>
<defs>
<clipPath id="clip0_2392_26459">
<rect width="12" height="12" fill="white" transform="translate(0 0.5)"/>
</clipPath>
</defs>
</svg>
