<svg width="16" height="16" viewBox="0 0 16 16" fill="none" xmlns="http://www.w3.org/2000/svg">
<g id="clipboard-check" clip-path="url(#clip0_544_17828)">
<path id="Vector" d="M13.7031 0.8H11.0321C10.8902 0.557567 10.6859 0.356034 10.4396 0.215618C10.1933 0.0752026 9.91376 0.000843156 9.62898 0H6.36972C6.08493 0.000843156 5.80538 0.0752026 5.55911 0.215618C5.31283 0.356034 5.1085 0.557567 4.96661 0.8H2.29565C1.86344 0.8 1.44894 0.968571 1.14332 1.26863C0.837708 1.56869 0.666016 1.97565 0.666016 2.4V14.4C0.666016 14.8243 0.837708 15.2313 1.14332 15.5314C1.44894 15.8314 1.86344 16 2.29565 16H13.7031C14.1353 16 14.5498 15.8314 14.8554 15.5314C15.161 15.2313 15.3327 14.8243 15.3327 14.4V2.4C15.3327 1.97565 15.161 1.56869 14.8554 1.26863C14.5498 0.968571 14.1353 0.8 13.7031 0.8ZM6.36972 1.6H9.62898V4H6.36972V1.6ZM11.0142 8.2312L7.77528 11.3168C7.62322 11.4617 7.41966 11.5428 7.20776 11.5428C6.99585 11.5428 6.79229 11.4617 6.64024 11.3168L4.98453 9.7456C4.90771 9.67206 4.84638 9.58438 4.80407 9.48757C4.76175 9.39077 4.73927 9.28672 4.73791 9.18138C4.73655 9.07604 4.75633 8.97147 4.79613 8.87364C4.83593 8.77581 4.89497 8.68663 4.96987 8.6112C5.04477 8.53577 5.13407 8.47556 5.23267 8.43401C5.33127 8.39247 5.43724 8.3704 5.54453 8.36906C5.65182 8.36772 5.75833 8.38715 5.85797 8.42622C5.95762 8.4653 6.04845 8.52326 6.12527 8.5968L7.20735 9.628L9.87994 7.0832C9.95597 7.00663 10.0469 6.94581 10.1473 6.90432C10.2476 6.86284 10.3555 6.84153 10.4644 6.84167C10.5733 6.8418 10.6811 6.86337 10.7814 6.90511C10.8816 6.94684 10.9724 7.00789 11.0482 7.08465C11.1241 7.16141 11.1834 7.25231 11.2229 7.35199C11.2623 7.45167 11.281 7.5581 11.2778 7.66499C11.2747 7.77188 11.2497 7.87706 11.2044 7.97431C11.1591 8.07156 11.0944 8.15891 11.0142 8.2312Z" fill="#9CA3AF"/>
</g>
<defs>
<clipPath id="clip0_544_17828">
<rect width="16" height="16" fill="white"/>
</clipPath>
</defs>
</svg>
