<svg width="20" height="20" viewBox="0 0 20 20" fill="none" xmlns="http://www.w3.org/2000/svg">
<g id="clipboard-list" clip-path="url(#clip0_1995_285272)">
<path id="Vector" d="M17.1293 1H13.7906C13.6132 0.696959 13.3578 0.445042 13.05 0.269523C12.7421 0.0940032 12.3927 0.00105394 12.0367 0H7.96264C7.60665 0.00105394 7.25721 0.0940032 6.94937 0.269523C6.64153 0.445042 6.38611 0.696959 6.20875 1H2.87004C2.32979 1 1.81166 1.21071 1.42964 1.58579C1.04762 1.96086 0.833008 2.46957 0.833008 3V18C0.833008 18.5304 1.04762 19.0391 1.42964 19.4142C1.81166 19.7893 2.32979 20 2.87004 20H17.1293C17.6696 20 18.1877 19.7893 18.5697 19.4142C18.9517 19.0391 19.1663 18.5304 19.1663 18V3C19.1663 2.46957 18.9517 1.96086 18.5697 1.58579C18.1877 1.21071 17.6696 1 17.1293 1ZM7.96264 2H12.0367V4H7.96264V2ZM5.9256 15C5.72416 15 5.52724 14.9414 5.35974 14.8315C5.19225 14.7216 5.0617 14.5654 4.98461 14.3827C4.90752 14.2 4.88735 13.9989 4.92665 13.8049C4.96595 13.6109 5.06296 13.4327 5.2054 13.2929C5.34784 13.153 5.52932 13.0578 5.7269 13.0192C5.92447 12.9806 6.12926 13.0004 6.31537 13.0761C6.50148 13.1518 6.66055 13.28 6.77247 13.4444C6.88438 13.6089 6.94412 13.8022 6.94412 14C6.94412 14.2652 6.83681 14.5196 6.6458 14.7071C6.45479 14.8946 6.19573 15 5.9256 15ZM5.9256 11C5.72416 11 5.52724 10.9414 5.35974 10.8315C5.19225 10.7216 5.0617 10.5654 4.98461 10.3827C4.90752 10.2 4.88735 9.99889 4.92665 9.80491C4.96595 9.61093 5.06296 9.43275 5.2054 9.29289C5.34784 9.15304 5.52932 9.0578 5.7269 9.01921C5.92447 8.98063 6.12926 9.00043 6.31537 9.07612C6.50148 9.15181 6.66055 9.27998 6.77247 9.44443C6.88438 9.60888 6.94412 9.80222 6.94412 10C6.94412 10.2652 6.83681 10.5196 6.6458 10.7071C6.45479 10.8946 6.19573 11 5.9256 11ZM14.0737 15H8.98116C8.71103 15 8.45196 14.8946 8.26096 14.7071C8.06995 14.5196 7.96264 14.2652 7.96264 14C7.96264 13.7348 8.06995 13.4804 8.26096 13.2929C8.45196 13.1054 8.71103 13 8.98116 13H14.0737C14.3439 13 14.6029 13.1054 14.794 13.2929C14.985 13.4804 15.0923 13.7348 15.0923 14C15.0923 14.2652 14.985 14.5196 14.794 14.7071C14.6029 14.8946 14.3439 15 14.0737 15ZM14.0737 11H8.98116C8.71103 11 8.45196 10.8946 8.26096 10.7071C8.06995 10.5196 7.96264 10.2652 7.96264 10C7.96264 9.73478 8.06995 9.48043 8.26096 9.29289C8.45196 9.10536 8.71103 9 8.98116 9H14.0737C14.3439 9 14.6029 9.10536 14.794 9.29289C14.985 9.48043 15.0923 9.73478 15.0923 10C15.0923 10.2652 14.985 10.5196 14.794 10.7071C14.6029 10.8946 14.3439 11 14.0737 11Z" fill="#1F2A37"/>
</g>
<defs>
<clipPath id="clip0_1995_285272">
<rect width="20" height="20" fill="white"/>
</clipPath>
</defs>
</svg>
