<svg width="15" height="14" viewBox="0 0 15 14" fill="none" xmlns="http://www.w3.org/2000/svg">
<g id="clock" clip-path="url(#clip0_157_34408)">
<path id="Vector" d="M7.86182 0C6.47735 0 5.12397 0.410543 3.97283 1.17971C2.82168 1.94888 1.92448 3.04213 1.39466 4.32121C0.864849 5.6003 0.726226 7.00776 0.996323 8.36563C1.26642 9.7235 1.9331 10.9708 2.91207 11.9497C3.89104 12.9287 5.13832 13.5954 6.49619 13.8655C7.85405 14.1356 9.26152 13.997 10.5406 13.4672C11.8197 12.9373 12.9129 12.0401 13.6821 10.889C14.4513 9.73784 14.8618 8.38447 14.8618 7C14.8598 5.14411 14.1216 3.36482 12.8093 2.0525C11.497 0.74019 9.71771 0.00203812 7.86182 0ZM10.6492 9.7874C10.5179 9.91863 10.3399 9.99235 10.1543 9.99235C9.9687 9.99235 9.79069 9.91863 9.65942 9.7874L7.36762 7.4956C7.23668 7.36378 7.16277 7.18579 7.16182 7V4.2C7.16182 4.01435 7.23557 3.8363 7.36684 3.70502C7.49812 3.57375 7.67617 3.5 7.86182 3.5C8.04747 3.5 8.22552 3.57375 8.35679 3.70502C8.48807 3.8363 8.56182 4.01435 8.56182 4.2V6.7102L10.6492 8.7976C10.7804 8.92887 10.8542 9.10688 10.8542 9.2925C10.8542 9.47811 10.7804 9.65613 10.6492 9.7874Z" fill="#6B7280"/>
</g>
<defs>
<clipPath id="clip0_157_34408">
<rect width="14" height="14" fill="white" transform="translate(0.861816)"/>
</clipPath>
</defs>
</svg>
