<svg width="20" height="15" viewBox="0 0 20 15" fill="none" xmlns="http://www.w3.org/2000/svg">
<g id="flags / GB">
<rect id="Mask" y="0.5" width="19.6" height="14" rx="2" fill="white"/>
<mask id="mask0_2050_4040" style="mask-type:luminance" maskUnits="userSpaceOnUse" x="0" y="0" width="20" height="15">
<rect id="Mask_2" y="0.5" width="19.6" height="14" rx="2" fill="white"/>
</mask>
<g mask="url(#mask0_2050_4040)">
<rect id="Mask Copy" y="0.5" width="19.6" height="14" fill="#0A17A7"/>
<path id="Rectangle 2" fill-rule="evenodd" clip-rule="evenodd" d="M-0.897579 -0.841797L7.46682 4.80006V-0.433618H12.1335V4.80006L20.4979 -0.841797L21.5417 0.705739L14.9285 5.16638H19.6002V9.83305H14.9285L21.5417 14.2937L20.4979 15.8412L12.1335 10.1994V15.433H7.46682V10.1994L-0.897579 15.8412L-1.94141 14.2937L4.67177 9.83305H0.000149131V5.16638H4.67177L-1.94141 0.70574L-0.897579 -0.841797Z" fill="white"/>
<path id="Line" d="M13.0674 4.93215L21.9331 -0.900391" stroke="#DB1F35" stroke-width="0.666667" stroke-linecap="round"/>
<path id="Line Copy 2" d="M14.0088 10.0883L21.9565 15.4453" stroke="#DB1F35" stroke-width="0.666667" stroke-linecap="round"/>
<path id="Line Copy" d="M5.60408 4.91709L-2.68604 -0.669922" stroke="#DB1F35" stroke-width="0.666667" stroke-linecap="round"/>
<path id="Line Copy 3" d="M6.50323 10.0233L-2.68604 16.1172" stroke="#DB1F35" stroke-width="0.666667" stroke-linecap="round"/>
<path id="Rectangle 2 Copy 3" fill-rule="evenodd" clip-rule="evenodd" d="M0 8.9H8.4V14.5H11.2V8.9H19.6V6.1H11.2V0.5H8.4V6.1H0V8.9Z" fill="#E6273E"/>
</g>
</g>
</svg>
