<svg width="20" height="21" viewBox="0 0 20 21" fill="none" xmlns="http://www.w3.org/2000/svg">
<g id="Google " clip-path="url(#clip0_2004_473)">
<g id="Vector">
<path d="M19.1668 10.8998C19.1668 10.2641 19.1153 9.62497 19.0053 8.9996H10.1848V12.6006H15.2359C15.0263 13.762 14.3528 14.7894 13.3667 15.4423V17.7788H16.3801C18.1497 16.1501 19.1668 13.7449 19.1668 10.8998Z" fill="#4285F4"/>
<path d="M10.1848 20.0363C12.7069 20.0363 14.8339 19.2082 16.3836 17.7788L13.3701 15.4423C12.5317 16.0127 11.4493 16.3357 10.1883 16.3357C7.74864 16.3357 5.68011 14.6898 4.93791 12.4769H1.82824V14.8856C3.41572 18.0434 6.64909 20.0363 10.1848 20.0363Z" fill="#34A853"/>
<path d="M4.93449 12.4769C4.54277 11.3155 4.54277 10.0579 4.93449 8.8965V6.4878H1.82825C0.501917 9.13016 0.501908 12.2433 1.82824 14.8856L4.93449 12.4769Z" fill="#FBBC04"/>
<path d="M10.1848 5.03432C11.518 5.0137 12.8066 5.51537 13.7721 6.43625L16.442 3.7664C14.7514 2.17892 12.5076 1.30615 10.1848 1.33364C6.64909 1.33364 3.41573 3.32659 1.82825 6.4878L4.93449 8.8965C5.67325 6.68022 7.74521 5.03432 10.1848 5.03432Z" fill="#EA4335"/>
</g>
</g>
<defs>
<clipPath id="clip0_2004_473">
<rect width="20" height="20" fill="white" transform="translate(0 0.5)"/>
</clipPath>
</defs>
</svg>
