<svg width="100" height="100" viewBox="0 0 100 100" fill="none" xmlns="http://www.w3.org/2000/svg">
<g id="users" clip-path="url(#clip0_616_90306)">
<g id="Vector">
<path d="M32.5 47.3684C44.9264 47.3684 55 36.7646 55 23.6842C55 10.6038 44.9264 0 32.5 0C20.0736 0 10 10.6038 10 23.6842C10 36.7646 20.0736 47.3684 32.5 47.3684Z" fill="#FDBA8C"/>
<path d="M40 52.6316H25C18.372 52.6399 12.0178 55.4152 7.3311 60.3485C2.64441 65.2819 0.00793929 71.9706 0 78.9474V94.7368C0 96.1327 0.526784 97.4714 1.46447 98.4585C2.40215 99.4455 3.67392 100 5 100H60C61.3261 100 62.5979 99.4455 63.5355 98.4585C64.4732 97.4714 65 96.1327 65 94.7368V78.9474C64.9921 71.9706 62.3556 65.2819 57.6689 60.3485C52.9822 55.4152 46.628 52.6399 40 52.6316Z" fill="#FDBA8C"/>
<path d="M50.845 37.3052C53.5417 33.3301 54.9941 28.5689 55 23.6842C54.9893 21.9499 54.7981 20.222 54.43 18.5316C52.3937 21.0986 50.9992 24.1606 50.3731 27.4393C49.747 30.7179 49.9092 34.1093 50.845 37.3052Z" fill="#FDBA8C"/>
<path d="M70 10.5263C67.6052 10.5456 65.2335 11.0217 63 11.9316C65.0566 17.7585 65.5507 24.0687 64.428 30.1714C63.3054 36.274 60.6093 41.934 56.635 46.5316C58.8778 47.8402 60.9785 49.4021 62.9 51.1895C65.1625 52.125 67.5693 52.6138 70 52.6316C75.3043 52.6316 80.3914 50.4135 84.1421 46.4654C87.8929 42.5173 90 37.1625 90 31.5789C90 25.9954 87.8929 20.6406 84.1421 16.6925C80.3914 12.7444 75.3043 10.5263 70 10.5263Z" fill="#FDBA8C"/>
<path d="M75 57.8947H68.615C72.7574 64.0499 74.9879 71.4042 75 78.9474V94.7368C74.9838 96.5339 74.6726 98.3145 74.08 100H95C96.3261 100 97.5979 99.4455 98.5355 98.4585C99.4732 97.4714 100 96.1327 100 94.7368V84.2105C99.9921 77.2337 97.3556 70.545 92.6689 65.6117C87.9822 60.6783 81.628 57.9031 75 57.8947Z" fill="#FDBA8C"/>
</g>
</g>
<defs>
<clipPath id="clip0_616_90306">
<rect width="100" height="100" fill="white"/>
</clipPath>
</defs>
</svg>
