<svg width="20" height="21" viewBox="0 0 20 21" fill="none" xmlns="http://www.w3.org/2000/svg">
<g id="bars">
<g id="Vector">
<path d="M18.8235 3.9523H1.17647C0.864451 3.9523 0.565212 3.81433 0.344581 3.56875C0.123949 3.32317 0 2.99008 0 2.64278C0 2.29547 0.123949 1.96239 0.344581 1.7168C0.565212 1.47122 0.864451 1.33325 1.17647 1.33325H18.8235C19.1355 1.33325 19.4348 1.47122 19.6554 1.7168C19.8761 1.96239 20 2.29547 20 2.64278C20 2.99008 19.8761 3.32317 19.6554 3.56875C19.4348 3.81433 19.1355 3.9523 18.8235 3.9523Z" fill="#6B7280"/>
<path d="M18.8235 11.8094H1.17647C0.864451 11.8094 0.565212 11.6715 0.344581 11.4259C0.123949 11.1803 0 10.8472 0 10.4999C0 10.1526 0.123949 9.81953 0.344581 9.57395C0.565212 9.32836 0.864451 9.19039 1.17647 9.19039H18.8235C19.1355 9.19039 19.4348 9.32836 19.6554 9.57395C19.8761 9.81953 20 10.1526 20 10.4999C20 10.8472 19.8761 11.1803 19.6554 11.4259C19.4348 11.6715 19.1355 11.8094 18.8235 11.8094Z" fill="#6B7280"/>
<path d="M18.8235 19.6666H1.17647C0.864451 19.6666 0.565212 19.5286 0.344581 19.283C0.123949 19.0375 0 18.7044 0 18.3571C0 18.0098 0.123949 17.6767 0.344581 17.4311C0.565212 17.1855 0.864451 17.0475 1.17647 17.0475H18.8235C19.1355 17.0475 19.4348 17.1855 19.6554 17.4311C19.8761 17.6767 20 18.0098 20 18.3571C20 18.7044 19.8761 19.0375 19.6554 19.283C19.4348 19.5286 19.1355 19.6666 18.8235 19.6666Z" fill="#6B7280"/>
</g>
</g>
</svg>
