<svg width="17" height="16" viewBox="0 0 17 16" fill="none" xmlns="http://www.w3.org/2000/svg">
<g id="image" clip-path="url(#clip0_535_6671)">
<path id="Vector" d="M14.9 0.666626H2.1C1.67565 0.666626 1.26869 0.838319 0.968629 1.14393C0.668571 1.44955 0.5 1.86405 0.5 2.29626V13.7037C0.5 14.1359 0.668571 14.5504 0.968629 14.856C1.26869 15.1616 1.67565 15.3333 2.1 15.3333H14.9C15.3243 15.3333 15.7313 15.1616 16.0314 14.856C16.3314 14.5504 16.5 14.1359 16.5 13.7037V2.29626C16.5 1.86405 16.3314 1.44955 16.0314 1.14393C15.7313 0.838319 15.3243 0.666626 14.9 0.666626ZM10.5 3.92589C10.7373 3.92589 10.9693 3.99757 11.1667 4.13187C11.364 4.26617 11.5178 4.45705 11.6087 4.68038C11.6995 4.90372 11.7232 5.14946 11.6769 5.38655C11.6306 5.62364 11.5164 5.84142 11.3485 6.01235C11.1807 6.18328 10.9669 6.29969 10.7341 6.34685C10.5013 6.394 10.2601 6.3698 10.0408 6.27729C9.82151 6.18479 9.63409 6.02813 9.50224 5.82714C9.37038 5.62614 9.3 5.38984 9.3 5.14811C9.3 4.82395 9.42643 4.51308 9.65147 4.28387C9.87652 4.05465 10.1817 3.92589 10.5 3.92589ZM14.0008 12.466C13.9319 12.5939 13.8305 12.7007 13.7072 12.7751C13.5839 12.8494 13.4433 12.8887 13.3 12.8888H3.7C3.56362 12.8889 3.42949 12.8535 3.31034 12.7859C3.1912 12.7183 3.091 12.6208 3.01925 12.5027C2.94751 12.3845 2.90662 12.2497 2.90045 12.1109C2.89428 11.9721 2.92304 11.8341 2.984 11.7098L5.784 6.00611C5.84846 5.87454 5.94666 5.7632 6.06821 5.68387C6.18976 5.60454 6.33011 5.56019 6.4744 5.55551C6.61993 5.54727 6.76478 5.58115 6.8922 5.65325C7.01962 5.72535 7.12439 5.83271 7.1944 5.96292L9.4144 9.839L10.6512 8.30144C10.7315 8.20178 10.8339 8.12297 10.95 8.07147C11.0661 8.01998 11.1925 7.99727 11.3188 8.00523C11.4452 8.01318 11.5679 8.05157 11.6769 8.11723C11.7858 8.18289 11.8779 8.27395 11.9456 8.38292L13.9784 11.6422C14.0537 11.7651 14.0955 11.9062 14.0994 12.051C14.1033 12.1958 14.0693 12.339 14.0008 12.466Z" fill="#0E9F6E"/>
</g>
<defs>
<clipPath id="clip0_535_6671">
<rect width="16" height="16" fill="white" transform="translate(0.5)"/>
</clipPath>
</defs>
</svg>
