<svg width="20" height="20" viewBox="0 0 20 20" fill="none" xmlns="http://www.w3.org/2000/svg">
<g id="image" clip-path="url(#clip0_1995_285269)">
<path id="Vector" d="M18 0.833374H2C1.46957 0.833374 0.960859 1.04799 0.585786 1.43001C0.210714 1.81203 0 2.33016 0 2.87041V17.1297C0 17.6699 0.210714 18.1881 0.585786 18.5701C0.960859 18.9521 1.46957 19.1667 2 19.1667H18C18.5304 19.1667 19.0391 18.9521 19.4142 18.5701C19.7893 18.1881 20 17.6699 20 17.1297V2.87041C20 2.33016 19.7893 1.81203 19.4142 1.43001C19.0391 1.04799 18.5304 0.833374 18 0.833374ZM12.5 4.90745C12.7967 4.90745 13.0867 4.99705 13.3334 5.16493C13.58 5.3328 13.7723 5.57141 13.8858 5.85057C13.9994 6.12974 14.0291 6.43692 13.9712 6.73328C13.9133 7.02964 13.7704 7.30186 13.5607 7.51553C13.3509 7.72919 13.0836 7.8747 12.7926 7.93365C12.5017 7.9926 12.2001 7.96234 11.926 7.84671C11.6519 7.73108 11.4176 7.53526 11.2528 7.28401C11.088 7.03277 11 6.73739 11 6.43523C11 6.03003 11.158 5.64144 11.4393 5.35492C11.7206 5.06841 12.1022 4.90745 12.5 4.90745ZM16.876 15.5825C16.7898 15.7425 16.6631 15.8759 16.509 15.9689C16.3549 16.0619 16.1791 16.111 16 16.1112H4C3.82952 16.1112 3.66186 16.0669 3.51293 15.9824C3.364 15.8979 3.23874 15.7761 3.14907 15.6284C3.05939 15.4807 3.00827 15.3122 3.00056 15.1387C2.99285 14.9653 3.0288 14.7927 3.105 14.6374L6.605 7.50773C6.68557 7.34327 6.80833 7.20409 6.96026 7.10493C7.1122 7.00577 7.28764 6.95033 7.468 6.94449C7.64992 6.93418 7.83098 6.97653 7.99025 7.06666C8.14952 7.15678 8.28049 7.29098 8.368 7.45374L11.143 12.2988L12.689 10.3769C12.7894 10.2523 12.9174 10.1538 13.0625 10.0894C13.2076 10.0251 13.3656 9.99669 13.5236 10.0066C13.6815 10.0166 13.8349 10.0646 13.9711 10.1466C14.1073 10.2287 14.2224 10.3425 14.307 10.4787L16.848 14.5528C16.9421 14.7064 16.9943 14.8828 16.9992 15.0638C17.0042 15.2448 16.9616 15.4239 16.876 15.5825Z" fill="#1F2A37"/>
</g>
<defs>
<clipPath id="clip0_1995_285269">
<rect width="20" height="20" fill="white"/>
</clipPath>
</defs>
</svg>
