<svg width="17" height="16" viewBox="0 0 17 16" fill="none" xmlns="http://www.w3.org/2000/svg">
<g id="link">
<g id="Vector">
<path d="M4.92034 16C4.17811 16.0012 3.45225 15.7619 2.83477 15.3124C2.2173 14.8629 1.73601 14.2235 1.45192 13.4751C1.16783 12.7268 1.09372 11.9032 1.239 11.1088C1.38428 10.3144 1.74241 9.585 2.26797 9.01301L5.25208 5.75712C5.95609 4.99053 6.90997 4.56001 7.90445 4.56001C8.89894 4.56001 9.85282 4.99053 10.5568 5.75712C10.6985 5.92201 10.7758 6.14058 10.7725 6.36658C10.7691 6.59259 10.6853 6.80831 10.5388 6.96808C10.3923 7.12786 10.1946 7.21916 9.98749 7.22267C9.7804 7.22618 9.58018 7.14163 9.4292 6.98689C9.0244 6.54641 8.47608 6.29906 7.90445 6.29906C7.33282 6.29906 6.7845 6.54641 6.3797 6.98689L3.39559 10.2436C2.9912 10.685 2.76401 11.2836 2.76401 11.9077C2.76401 12.2168 2.81979 12.5228 2.92815 12.8083C3.03652 13.0938 3.19535 13.3532 3.39559 13.5718C3.59582 13.7903 3.83353 13.9636 4.09515 14.0819C4.35677 14.2002 4.63717 14.2611 4.92034 14.2611C5.49223 14.2611 6.0407 14.0131 6.44509 13.5718L6.83186 13.1497C6.90616 13.0689 6.99432 13.0048 7.0913 12.9612C7.18828 12.9176 7.29219 12.8952 7.39708 12.8954C7.50197 12.8956 7.6058 12.9184 7.70264 12.9624C7.79948 13.0064 7.88743 13.0708 7.96147 13.1518C8.03551 13.2329 8.09419 13.3291 8.13416 13.435C8.17413 13.5408 8.19461 13.6542 8.19442 13.7687C8.19424 13.8832 8.17339 13.9965 8.13308 14.1022C8.09277 14.2079 8.03378 14.3039 7.95948 14.3847L7.57271 14.8068C7.22439 15.1865 6.81077 15.4874 6.3556 15.6922C5.90042 15.8969 5.41266 16.0015 4.92034 16Z" fill="#3F83F8"/>
<path d="M9.10145 11.4412C8.60886 11.4421 8.12097 11.3367 7.6658 11.1312C7.21063 10.9257 6.79714 10.6241 6.44908 10.2437C6.30381 10.0795 6.22343 9.85966 6.22525 9.63146C6.22707 9.40327 6.31094 9.18498 6.45879 9.02361C6.60665 8.86225 6.80666 8.77072 7.01576 8.76873C7.22485 8.76675 7.42629 8.85447 7.57669 9.01301C7.98747 9.44098 8.53354 9.67976 9.10145 9.67976C9.66935 9.67976 10.2154 9.44098 10.6262 9.01301L13.6095 5.75712C13.8101 5.53883 13.9693 5.27947 14.0779 4.99392C14.1865 4.70837 14.2424 4.40223 14.2424 4.09306C14.2424 3.78389 14.1865 3.47775 14.0779 3.1922C13.9693 2.90665 13.8101 2.64729 13.6095 2.429C13.199 2.00089 12.653 1.76199 12.0852 1.76199C11.5173 1.76199 10.9714 2.00089 10.5608 2.429L9.9659 3.07826C9.81626 3.24145 9.61335 3.33309 9.40181 3.33301C9.19026 3.33293 8.98742 3.24113 8.83788 3.07782C8.68835 2.91452 8.60439 2.69307 8.60446 2.4622C8.60454 2.23133 8.68865 2.00994 8.83828 1.84675L9.43319 1.19749C10.1366 0.430341 11.0905 -0.000407763 12.085 2.8965e-07C13.0794 0.000408342 14.033 0.43194 14.7359 1.19966C15.4389 1.96739 15.8335 3.00841 15.8332 4.09373C15.8328 5.17904 15.4374 6.21975 14.7339 6.98689L11.7498 10.2428C11.4023 10.6229 10.9895 10.9244 10.5351 11.13C10.0806 11.3357 9.59342 11.4414 9.10145 11.4412Z" fill="#3F83F8"/>
</g>
</g>
</svg>
