<svg width="16" height="16" viewBox="0 0 16 16" fill="none" xmlns="http://www.w3.org/2000/svg">
<g id="lock-time">
<g id="lock-time_2">
<path d="M6.73684 11.6C6.73363 10.8143 6.91861 10.0381 7.27779 9.33036C7.63697 8.62259 8.16093 8.00171 8.81001 7.51473C9.45909 7.02774 10.2163 6.68742 11.0243 6.51952C11.8323 6.35162 12.6699 6.36054 13.4737 6.5456V6.4C13.4737 6.18783 13.385 5.98434 13.227 5.83431C13.0691 5.68429 12.8549 5.6 12.6316 5.6H10.5263V3.6C10.5263 2.64522 10.1271 1.72955 9.4164 1.05442C8.70574 0.379285 7.74187 0 6.73684 0C5.73181 0 4.76794 0.379285 4.05728 1.05442C3.34662 1.72955 2.94737 2.64522 2.94737 3.6V5.6H1.68421C1.23753 5.6 0.809145 5.76857 0.493294 6.06863C0.177443 6.36869 0 6.77565 0 7.2V14.4C0 14.8243 0.177443 15.2313 0.493294 15.5314C0.809145 15.8314 1.23753 16 1.68421 16H9.30695C8.52128 15.5335 7.87327 14.885 7.42372 14.1153C6.97416 13.3457 6.73781 12.4802 6.73684 11.6ZM4.63158 3.6C4.63158 3.06957 4.85338 2.56086 5.2482 2.18579C5.64301 1.81071 6.17849 1.6 6.73684 1.6C7.29519 1.6 7.83067 1.81071 8.22549 2.18579C8.6203 2.56086 8.8421 3.06957 8.8421 3.6V5.6H4.63158V3.6Z" fill="#111928"/>
<path d="M12.2105 8C11.461 8 10.7284 8.21114 10.1052 8.60671C9.48203 9.00228 8.99633 9.56453 8.70951 10.2223C8.42269 10.8802 8.34765 11.604 8.49387 12.3023C8.64008 13.0007 9.001 13.6421 9.53096 14.1456C10.0609 14.6491 10.7362 14.9919 11.4712 15.1308C12.2063 15.2697 12.9683 15.1984 13.6607 14.926C14.3531 14.6535 14.945 14.1921 15.3614 13.6001C15.7778 13.008 16 12.312 16 11.6C16 11.1272 15.902 10.6591 15.7115 10.2223C15.5211 9.78557 15.242 9.38871 14.8901 9.05442C14.5382 8.72013 14.1205 8.45495 13.6607 8.27403C13.2009 8.09312 12.7082 8 12.2105 8ZM13.9453 13.2488C13.7873 13.3988 13.5732 13.483 13.3499 13.483C13.1266 13.483 12.9124 13.3988 12.7545 13.2488L11.6152 12.1656C11.4572 12.0156 11.3685 11.8122 11.3684 11.6V10.1136C11.3684 9.90143 11.4571 9.69794 11.6151 9.54792C11.773 9.39789 11.9872 9.3136 12.2105 9.3136C12.4339 9.3136 12.6481 9.39789 12.806 9.54792C12.9639 9.69794 13.0526 9.90143 13.0526 10.1136V11.2688L13.9453 12.1168C14.0236 12.1911 14.0857 12.2793 14.128 12.3764C14.1704 12.4736 14.1922 12.5777 14.1922 12.6828C14.1922 12.7879 14.1704 12.892 14.128 12.9892C14.0857 13.0863 14.0236 13.1745 13.9453 13.2488Z" fill="#111928"/>
</g>
</g>
</svg>
