<svg width="14" height="15" viewBox="0 0 14 15" fill="none" xmlns="http://www.w3.org/2000/svg">
<g id="map-pin" clip-path="url(#clip0_157_35917)">
<path id="Vector" d="M6.99994 0.500003C5.93642 0.499006 4.8929 0.777402 3.98242 1.30503C3.07194 1.83266 2.32922 2.5894 1.83474 3.49327C1.34025 4.39715 1.11285 5.41368 1.17717 6.43275C1.2415 7.45181 1.59509 8.43455 2.19964 9.2745C2.22383 9.32014 2.25318 9.3631 2.28714 9.4026L2.37464 9.5048C2.45631 9.6063 2.54017 9.7043 2.61236 9.7848L6.437 14.2466C6.50558 14.3261 6.59161 14.39 6.68893 14.4338C6.78625 14.4776 6.89245 14.5002 6.99994 14.5C7.10773 14.5 7.21418 14.4772 7.31165 14.433C7.40912 14.3888 7.49517 14.3244 7.56361 14.2445L11.2767 9.901C11.4271 9.74576 11.5678 9.58214 11.6982 9.411L11.7908 9.3025C11.826 9.26137 11.8559 9.21623 11.8797 9.1681C12.456 8.32344 12.7836 7.34494 12.828 6.33615C12.8723 5.32737 12.6318 4.32584 12.1317 3.43757C11.6316 2.5493 10.8907 1.80734 9.98733 1.29022C9.08395 0.773104 8.05174 0.500063 6.99994 0.500003ZM6.99994 4C7.43261 4 7.85556 4.12316 8.2153 4.35392C8.57505 4.58467 8.85544 4.91264 9.02101 5.29637C9.18659 5.68009 9.22991 6.10233 9.1455 6.50969C9.06109 6.91705 8.85274 7.29123 8.5468 7.58493C8.24086 7.87862 7.85107 8.07862 7.42672 8.15965C7.00237 8.24068 6.56252 8.19909 6.16279 8.04015C5.76306 7.8812 5.4214 7.61204 5.18103 7.2667C4.94065 6.92136 4.81235 6.51534 4.81235 6.1C4.81235 5.54305 5.04283 5.0089 5.45308 4.61508C5.86333 4.22125 6.41976 4 6.99994 4Z" fill="#6B7280"/>
</g>
<defs>
<clipPath id="clip0_157_35917">
<rect width="14" height="14" fill="white" transform="translate(0 0.5)"/>
</clipPath>
</defs>
</svg>
