<svg width="16" height="16" viewBox="0 0 16 16" fill="none" xmlns="http://www.w3.org/2000/svg">
<g id="messages" clip-path="url(#clip0_544_17779)">
<g id="Vector">
<path d="M14.4 3.92601H12.8V8.00008C12.8 8.86449 12.4629 9.6935 11.8627 10.3047C11.2626 10.916 10.4487 11.2593 9.6 11.2593H7.2L5.4768 12.5753C5.74395 12.7772 6.06734 12.8871 6.4 12.889H9.3336L12.32 15.1705C12.4585 15.2762 12.6269 15.3334 12.8 15.3334C13.0122 15.3334 13.2157 15.2476 13.3657 15.0948C13.5157 14.942 13.6 14.7347 13.6 14.5186V12.889H14.4C14.8243 12.889 15.2313 12.7173 15.5314 12.4117C15.8314 12.106 16 11.6915 16 11.2593V5.55564C16 5.12343 15.8314 4.70893 15.5314 4.40331C15.2313 4.0977 14.8243 3.92601 14.4 3.92601Z" fill="#9CA3AF"/>
<path d="M9.6 0.666748H1.6C1.17565 0.666748 0.768687 0.838441 0.468629 1.14406C0.168571 1.44967 0 1.86417 0 2.29638V8.00008C0 8.43229 0.168571 8.84679 0.468629 9.1524C0.768687 9.45802 1.17565 9.62971 1.6 9.62971H2.4V11.2593C2.4 11.4107 2.44137 11.559 2.51948 11.6877C2.59759 11.8164 2.70934 11.9205 2.84223 11.9881C2.97511 12.0558 3.12388 12.0845 3.27184 12.0709C3.41981 12.0573 3.56114 12.002 3.68 11.9112L6.6664 9.62971H9.6C10.0243 9.62971 10.4313 9.45802 10.7314 9.1524C11.0314 8.84679 11.2 8.43229 11.2 8.00008V2.29638C11.2 1.86417 11.0314 1.44967 10.7314 1.14406C10.4313 0.838441 10.0243 0.666748 9.6 0.666748Z" fill="#9CA3AF"/>
</g>
</g>
<defs>
<clipPath id="clip0_544_17779">
<rect width="16" height="16" fill="white"/>
</clipPath>
</defs>
</svg>
