<svg width="10" height="10" viewBox="0 0 10 10" fill="none" xmlns="http://www.w3.org/2000/svg">
<g id="check" clip-path="url(#clip0_157_42539)">
<path id="Vector" d="M5 0C4.0111 0 3.0444 0.293245 2.22215 0.842652C1.3999 1.39206 0.759043 2.17295 0.380605 3.08658C0.00216642 4.00021 -0.0968502 5.00555 0.0960758 5.97545C0.289002 6.94535 0.765206 7.83627 1.46447 8.53553C2.16373 9.23479 3.05465 9.711 4.02455 9.90392C4.99445 10.0969 5.99979 9.99783 6.91342 9.6194C7.82705 9.24096 8.60794 8.60009 9.15735 7.77785C9.70675 6.9556 10 5.9889 10 5C9.99854 3.67436 9.47129 2.40344 8.53393 1.46607C7.59656 0.528707 6.32564 0.0014558 5 0ZM6.8535 4.3535L4.8535 6.3535C4.75974 6.44723 4.63258 6.49989 4.5 6.49989C4.36742 6.49989 4.24027 6.44723 4.1465 6.3535L3.1465 5.3535C3.05542 5.2592 3.00503 5.1329 3.00616 5.0018C3.0073 4.8707 3.05989 4.74529 3.15259 4.65259C3.2453 4.55989 3.3707 4.5073 3.5018 4.50616C3.6329 4.50502 3.7592 4.55542 3.8535 4.6465L4.5 5.293L6.1465 3.6465C6.2408 3.55542 6.3671 3.50502 6.4982 3.50616C6.6293 3.5073 6.75471 3.55989 6.84741 3.65259C6.94011 3.74529 6.9927 3.8707 6.99384 4.0018C6.99498 4.1329 6.94458 4.2592 6.8535 4.3535Z" fill="#FF8A4C"/>
</g>
<defs>
<clipPath id="clip0_157_42539">
<rect width="10" height="10" fill="white"/>
</clipPath>
</defs>
</svg>
