<svg width="11" height="11" viewBox="0 0 11 11" fill="none" xmlns="http://www.w3.org/2000/svg">
<g id="Bell off" clip-path="url(#clip0_598_75296)">
<path id="Icon" d="M6.29259 9.62492C6.21201 9.76383 6.09635 9.87913 5.9572 9.95929C5.81804 10.0394 5.66027 10.0816 5.49967 10.0816C5.33908 10.0816 5.18131 10.0394 5.04215 9.95929C4.903 9.87913 4.78734 9.76383 4.70676 9.62492M8.53842 5.95825C8.33453 5.21181 8.23731 4.44027 8.24968 3.66659C8.25041 3.16841 8.11581 2.67938 7.86024 2.25175C7.60468 1.82412 7.23775 1.47394 6.79865 1.23863C6.35955 1.00331 5.86477 0.891695 5.36717 0.915699C4.86957 0.939704 4.38784 1.09843 3.97342 1.37492M2.86884 2.86909C2.78921 3.12741 2.74904 3.39627 2.74967 3.66659C2.74967 6.87492 1.37467 7.79159 1.37467 7.79159H7.79134M0.458008 0.458252L10.5413 10.5416" stroke="#1E1E1E" stroke-linecap="round" stroke-linejoin="round"/>
</g>
<defs>
<clipPath id="clip0_598_75296">
<rect width="11" height="11" fill="white"/>
</clipPath>
</defs>
</svg>
