<svg width="17" height="18" viewBox="0 0 17 18" fill="none" xmlns="http://www.w3.org/2000/svg">
<g id="ordored-list-outline">
<path id="Vector" d="M8.06847 3.49996H15.8332M8.06847 8.99996H15.8332M8.06847 14.5H15.8332M1.1665 2.58329L2.89199 1.66663V6.24996M1.1665 12.6666C1.16627 12.3601 1.23836 12.0584 1.3762 11.7892C1.51403 11.5199 1.71321 11.2916 1.95551 11.1253C2.19781 10.9589 2.4755 10.8598 2.76318 10.8369C3.05086 10.814 3.33935 10.8681 3.60226 10.9943C3.86517 11.1205 4.09411 11.3147 4.26814 11.5591C4.44218 11.8036 4.55575 12.0905 4.59846 12.3936C4.64118 12.6968 4.61168 13.0065 4.51267 13.2944C4.41365 13.5822 4.24828 13.8392 4.03168 14.0416L1.1665 16.3333H5.48023M1.1665 7.16663H4.61749" stroke="#6875F5" stroke-width="2" stroke-linecap="round" stroke-linejoin="round"/>
</g>
</svg>
