<svg width="16" height="17" viewBox="0 0 16 17" fill="none" xmlns="http://www.w3.org/2000/svg">
<g id="paper-clip" clip-path="url(#clip0_157_47187)">
<path id="Vector" d="M7.99996 16.5C6.5859 16.4987 5.23017 15.9926 4.23028 15.0927C3.23039 14.1928 2.66804 12.9726 2.66663 11.7L2.66663 5.3C2.66663 5.08783 2.76028 4.88434 2.92698 4.73431C3.09367 4.58429 3.31977 4.5 3.55551 4.5C3.79126 4.5 4.01735 4.58429 4.18405 4.73431C4.35075 4.88434 4.4444 5.08783 4.4444 5.3L4.4444 11.7C4.4444 12.5487 4.81901 13.3626 5.4858 13.9627C6.1526 14.5629 7.05697 14.9 7.99996 14.9C8.94295 14.9 9.84732 14.5629 10.5141 13.9627C11.1809 13.3626 11.5555 12.5487 11.5555 11.7L11.5555 4.1C11.5555 3.56957 11.3214 3.06086 10.9046 2.68579C10.4879 2.31071 9.92266 2.1 9.33329 2.1C8.74392 2.1 8.17869 2.31071 7.76194 2.68579C7.3452 3.06086 7.11107 3.56957 7.11107 4.1L7.11107 10.9C7.11107 11.1122 7.20472 11.3157 7.37142 11.4657C7.53812 11.6157 7.76421 11.7 7.99996 11.7C8.23571 11.7 8.4618 11.6157 8.6285 11.4657C8.7952 11.3157 8.88885 11.1122 8.88885 10.9V5.3C8.88885 5.08783 8.9825 4.88434 9.1492 4.73431C9.3159 4.58429 9.54199 4.5 9.77774 4.5C10.0135 4.5 10.2396 4.58429 10.4063 4.73431C10.573 4.88434 10.6666 5.08783 10.6666 5.3V10.9C10.6666 11.5365 10.3857 12.147 9.88558 12.5971C9.38548 13.0471 8.7072 13.3 7.99996 13.3C7.29272 13.3 6.61444 13.0471 6.11434 12.5971C5.61424 12.147 5.33329 11.5365 5.33329 10.9L5.33329 4.1C5.33329 3.14522 5.75472 2.22955 6.50487 1.55442C7.25501 0.879285 8.27243 0.5 9.33329 0.5C10.3942 0.5 11.4116 0.879285 12.1617 1.55442C12.9119 2.22955 13.3333 3.14522 13.3333 4.1L13.3333 11.7C13.3319 12.9726 12.7695 14.1928 11.7696 15.0927C10.7697 15.9926 9.41401 16.4987 7.99996 16.5Z" fill="#FF8A4C"/>
</g>
<defs>
<clipPath id="clip0_157_47187">
<rect width="16" height="16" fill="white" transform="translate(0 0.5)"/>
</clipPath>
</defs>
</svg>
