<svg width="16" height="16" viewBox="0 0 16 16" fill="none" xmlns="http://www.w3.org/2000/svg">
<g id="paper-clip">
<path id="Vector" d="M8.00033 16C6.58627 15.9987 5.23054 15.4926 4.23065 14.5927C3.23076 13.6928 2.6684 12.4726 2.66699 11.2V4.8C2.66699 4.58783 2.76064 4.38434 2.92734 4.23431C3.09404 4.08429 3.32013 4 3.55588 4C3.79163 4 4.01772 4.08429 4.18442 4.23431C4.35112 4.38434 4.44477 4.58783 4.44477 4.8V11.2C4.44477 12.0487 4.81937 12.8626 5.48617 13.4627C6.15296 14.0629 7.05733 14.4 8.00033 14.4C8.94332 14.4 9.84769 14.0629 10.5145 13.4627C11.1813 12.8626 11.5559 12.0487 11.5559 11.2V3.6C11.5559 3.06957 11.3218 2.56086 10.905 2.18579C10.4883 1.81071 9.92303 1.6 9.33366 1.6C8.74429 1.6 8.17906 1.81071 7.76231 2.18579C7.34556 2.56086 7.11144 3.06957 7.11144 3.6V10.4C7.11144 10.6122 7.20509 10.8157 7.37179 10.9657C7.53849 11.1157 7.76458 11.2 8.00033 11.2C8.23607 11.2 8.46217 11.1157 8.62886 10.9657C8.79556 10.8157 8.88921 10.6122 8.88921 10.4V4.8C8.88921 4.58783 8.98286 4.38434 9.14956 4.23431C9.31626 4.08429 9.54236 4 9.7781 4C10.0139 4 10.2399 4.08429 10.4066 4.23431C10.5733 4.38434 10.667 4.58783 10.667 4.8V10.4C10.667 11.0365 10.386 11.647 9.88594 12.0971C9.38585 12.5471 8.70757 12.8 8.00033 12.8C7.29308 12.8 6.6148 12.5471 6.11471 12.0971C5.61461 11.647 5.33366 11.0365 5.33366 10.4V3.6C5.33366 2.64522 5.75509 1.72955 6.50523 1.05442C7.25538 0.379285 8.27279 0 9.33366 0C10.3945 0 11.4119 0.379285 12.1621 1.05442C12.9122 1.72955 13.3337 2.64522 13.3337 3.6V11.2C13.3322 12.4726 12.7699 13.6928 11.77 14.5927C10.7701 15.4926 9.41438 15.9987 8.00033 16Z" fill="#6B7280"/>
</g>
</svg>
