<svg width="15" height="14" viewBox="0 0 15 14" fill="none" xmlns="http://www.w3.org/2000/svg">
<g id="users-group" clip-path="url(#clip0_157_34405)">
<g id="Vector">
<path d="M7.86181 7.36844C9.02161 7.36844 9.96181 6.37876 9.96181 5.15792C9.96181 3.93709 9.02161 2.9474 7.86181 2.9474C6.70202 2.9474 5.76182 3.93709 5.76182 5.15792C5.76182 6.37876 6.70202 7.36844 7.86181 7.36844Z" fill="#6B7280"/>
<path d="M7.16182 9.57896H8.56181C9.30442 9.57896 10.0166 9.88949 10.5417 10.4422C11.0668 10.995 11.3618 11.7446 11.3618 12.5263V14H4.36182V12.5263C4.36182 11.7446 4.65681 10.995 5.18192 10.4422C5.70702 9.88949 6.41921 9.57896 7.16182 9.57896Z" fill="#6B7280"/>
<path d="M9.96181 5.15792C9.9613 4.63697 9.78566 4.13302 9.466 3.73531C9.14634 3.3376 8.7033 3.0718 8.21531 2.98498" fill="#6B7280"/>
<path d="M11.0118 4.52493e-05C10.5089 0.00166372 10.0157 0.146309 9.58444 0.418686C9.15318 0.691063 8.79985 1.08105 8.56181 1.54741C9.35189 1.7183 10.0618 2.17074 10.5719 2.82845C11.0819 3.48616 11.3609 4.3089 11.3618 5.15792C11.3607 5.39556 11.3372 5.6325 11.2918 5.86529C12.0076 5.7936 12.6695 5.43405 13.1397 4.86152C13.6099 4.28899 13.8522 3.5476 13.8161 2.79174C13.78 2.03587 13.4683 1.32379 12.946 0.803764C12.4236 0.283737 11.7308 -0.0041516 11.0118 4.52493e-05Z" fill="#6B7280"/>
<path d="M6.01802 8.27623C5.42056 7.88237 4.94843 7.3097 4.66212 6.6316H4.36182C3.4339 6.63277 2.54431 7.0213 1.88817 7.71197C1.23203 8.40264 0.862928 9.33905 0.861816 10.3158V11.7895C0.861816 11.9849 0.935566 12.1723 1.06684 12.3105C1.19812 12.4487 1.37616 12.5263 1.56182 12.5263H2.96182C2.96341 11.5646 3.26256 10.6295 3.81398 9.86271C4.36541 9.09587 5.13911 8.53896 6.01802 8.27623Z" fill="#6B7280"/>
<path d="M11.3618 6.6316H11.0615C10.7752 7.3097 10.3031 7.88237 9.70562 8.27623C10.5845 8.53896 11.3582 9.09587 11.9096 9.86271C12.4611 10.6295 12.7602 11.5646 12.7618 12.5263H14.1618C14.3475 12.5263 14.5255 12.4487 14.6568 12.3105C14.7881 12.1723 14.8618 11.9849 14.8618 11.7895V10.3158C14.8607 9.33905 14.4916 8.40264 13.8355 7.71197C13.1793 7.0213 12.2897 6.63277 11.3618 6.6316Z" fill="#6B7280"/>
<path d="M4.36182 5.15793C4.3627 4.3089 4.6417 3.48617 5.15176 2.82846C5.66182 2.17075 6.37175 1.7183 7.16182 1.54741C6.93328 1.10073 6.59877 0.72395 6.19084 0.453735C5.78292 0.18352 5.31548 0.0290807 4.83403 0.00544972C4.35258 -0.0181813 3.87352 0.0898013 3.44348 0.318887C3.01344 0.547972 2.64707 0.890355 2.38003 1.31271C2.113 1.73506 1.9544 2.223 1.91966 2.72902C1.88493 3.23504 1.97525 3.7419 2.18183 4.20028C2.38842 4.65865 2.70422 5.05292 3.09851 5.3447C3.4928 5.63648 3.95214 5.81583 4.43182 5.86529C4.38643 5.6325 4.36298 5.39557 4.36182 5.15793Z" fill="#6B7280"/>
</g>
</g>
<defs>
<clipPath id="clip0_157_34405">
<rect width="14" height="14" fill="white" transform="translate(0.861816)"/>
</clipPath>
</defs>
</svg>
