<svg width="14" height="15" viewBox="0 0 14 15" fill="none" xmlns="http://www.w3.org/2000/svg">
<g id="pencil-alt">
<path id="Vector" d="M12.1902 2.31029C11.9277 2.04783 11.5716 1.90039 11.2004 1.90039C10.8292 1.90039 10.4731 2.04783 10.2106 2.31029L4.90039 7.62049V9.60009H6.87999L12.1902 4.28989C12.4526 4.02735 12.6001 3.67132 12.6001 3.30009C12.6001 2.92886 12.4526 2.57283 12.1902 2.31029Z" fill="#111928"/>
<path id="Vector_2" fill-rule="evenodd" clip-rule="evenodd" d="M1.40039 4.6998C1.40039 4.3285 1.54789 3.97241 1.81044 3.70986C2.07299 3.4473 2.42909 3.2998 2.80039 3.2998H5.60039C5.78604 3.2998 5.96409 3.37355 6.09537 3.50483C6.22664 3.63611 6.30039 3.81415 6.30039 3.9998C6.30039 4.18546 6.22664 4.3635 6.09537 4.49478C5.96409 4.62605 5.78604 4.6998 5.60039 4.6998H2.80039V11.6998H9.80039V8.8998C9.80039 8.71415 9.87414 8.53611 10.0054 8.40483C10.1367 8.27355 10.3147 8.1998 10.5004 8.1998C10.686 8.1998 10.8641 8.27355 10.9954 8.40483C11.1266 8.53611 11.2004 8.71415 11.2004 8.8998V11.6998C11.2004 12.0711 11.0529 12.4272 10.7903 12.6898C10.5278 12.9523 10.1717 13.0998 9.80039 13.0998H2.80039C2.42909 13.0998 2.07299 12.9523 1.81044 12.6898C1.54789 12.4272 1.40039 12.0711 1.40039 11.6998V4.6998Z" fill="#111928"/>
</g>
</svg>
