<svg width="20" height="21" viewBox="0 0 20 21" fill="none" xmlns="http://www.w3.org/2000/svg">
<g id="file-image" clip-path="url(#clip0_157_39134)">
<g id="Vector">
<path d="M16.3187 0.5H8.95829V5.5C8.95829 6.603 8.02392 7.5 6.87496 7.5H1.66663V18.5C1.66663 19.603 2.56975 20.5 3.68121 20.5H16.3197C17.4302 20.5 18.3333 19.603 18.3333 18.5V2.5C18.3333 1.397 17.4302 0.5 16.3187 0.5ZM12.6041 6.5C13.4666 6.5 14.1666 7.172 14.1666 8C14.1666 8.828 13.4666 9.5 12.6041 9.5C11.7416 9.5 11.0416 8.828 11.0416 8C11.0416 7.172 11.7416 6.5 12.6041 6.5ZM14.9177 17.015C14.7291 17.316 14.3906 17.5 14.0239 17.5H5.69058C5.33329 17.5 5.001 17.324 4.80933 17.034C4.61767 16.744 4.59579 16.38 4.74996 16.07L7.49683 10.539C7.67496 10.181 8.03121 9.958 8.47288 9.97C8.88642 9.984 9.25308 10.231 9.40621 10.601L10.6375 13.582L11.201 12.585C11.3843 12.262 11.6864 12.06 12.1208 12.063C12.5041 12.064 12.8552 12.268 13.0364 12.593L14.9447 16.031C15.1156 16.34 15.1052 16.713 14.9177 17.015Z" fill="#9CA3AF"/>
<path d="M6.87496 5.5V0.63C6.37288 0.768 5.90725 1.014 5.52808 1.379L2.58225 4.207C2.20308 4.571 1.94683 5.018 1.80204 5.5H6.87496Z" fill="#9CA3AF"/>
</g>
</g>
<defs>
<clipPath id="clip0_157_39134">
<rect width="20" height="20" fill="white" transform="translate(0 0.5)"/>
</clipPath>
</defs>
</svg>
