<svg width="16" height="17" viewBox="0 0 16 17" fill="none" xmlns="http://www.w3.org/2000/svg">
<g id="search-outline" clip-path="url(#clip0_2680_21312)">
<path id="Vector" d="M12.0078 12.21C12.0843 12.2094 12.1579 12.2381 12.2139 12.29L15.4121 15.4883C15.433 15.5092 15.451 15.5327 15.4648 15.5586L15.4941 15.6416C15.4999 15.6707 15.5019 15.7003 15.499 15.7295L15.4775 15.8145C15.4661 15.842 15.4504 15.8679 15.4316 15.8906L15.3662 15.9492C15.317 15.9821 15.2594 16 15.2002 16L15.1416 15.9941C15.1031 15.9865 15.0668 15.971 15.0342 15.9492L14.9883 15.9121L11.7939 12.7178C11.7531 12.6754 11.7256 12.6224 11.7148 12.5654L11.71 12.5068C11.7105 12.448 11.7284 12.391 11.7607 12.3428L11.7979 12.2979C11.8396 12.2561 11.8923 12.2276 11.9492 12.2158L12.0078 12.21ZM5.24902 1.11328C6.32184 0.89989 7.43138 0.989326 8.4541 1.36914L8.6582 1.44922C9.66864 1.86781 10.5414 2.55849 11.1807 3.44238L11.3057 3.62207C11.9135 4.5317 12.2555 5.59123 12.2959 6.68164L12.2998 6.90039C12.2979 8.36659 11.751 9.7757 10.7715 10.8574L10.5703 11.0693C9.46411 12.1755 7.96382 12.7971 6.39941 12.7988C5.30557 12.7987 4.23459 12.496 3.30566 11.9238L3.12207 11.8057C2.21252 11.1979 1.49072 10.3502 1.03613 9.3584L0.949219 9.1582C0.530539 8.14743 0.402033 7.04124 0.575195 5.96387L0.613281 5.74902C0.826678 4.67622 1.33388 3.68526 2.07617 2.88574L2.22852 2.72852C3.00198 1.95506 3.97376 1.41254 5.03516 1.16016L5.24902 1.11328ZM6.40039 1.59961C5.48303 1.59961 4.58352 1.83831 3.78906 2.28809L3.45508 2.49316C2.69254 3.00274 2.07762 3.70051 1.66699 4.51562L1.50391 4.87207C1.15294 5.71942 1.02824 6.64097 1.13965 7.54688L1.20215 7.93359C1.38109 8.83319 1.78975 9.66898 2.38574 10.3604L2.65234 10.6475C3.30086 11.296 4.10482 11.764 4.98438 12.0078L5.36621 12.0986C6.26569 12.2775 7.19383 12.2186 8.06055 11.9326L8.42871 11.7969C9.27602 11.4459 10.0154 10.8815 10.5771 10.1621L10.8066 9.84473C11.3889 8.97326 11.7001 7.9485 11.7002 6.90039V6.89941C11.6989 5.582 11.2074 4.31558 10.3271 3.34375L10.1465 3.15332C9.21499 2.22192 7.9725 1.67258 6.66309 1.60645L6.40039 1.59961Z" fill="#6B7280" stroke="#6B7280"/>
</g>
<defs>
<clipPath id="clip0_2680_21312">
<rect width="16" height="16" fill="white" transform="translate(0 0.5)"/>
</clipPath>
</defs>
</svg>
