<svg width="14" height="14" viewBox="0 0 14 14" fill="none" xmlns="http://www.w3.org/2000/svg">
<g id="users-group" clip-path="url(#clip0_550_41649)">
<g id="Vector">
<path d="M7 7.36844C8.1598 7.36844 9.1 6.37876 9.1 5.15792C9.1 3.93709 8.1598 2.9474 7 2.9474C5.8402 2.9474 4.9 3.93709 4.9 5.15792C4.9 6.37876 5.8402 7.36844 7 7.36844Z" fill="#6B7280"/>
<path d="M6.3 9.57896H7.7C8.4426 9.57896 9.1548 9.88949 9.6799 10.4422C10.205 10.995 10.5 11.7446 10.5 12.5263V14H3.5V12.5263C3.5 11.7446 3.795 10.995 4.3201 10.4422C4.8452 9.88949 5.55739 9.57896 6.3 9.57896Z" fill="#6B7280"/>
<path d="M9.1 5.15792C9.09948 4.63697 8.92384 4.13302 8.60419 3.73531C8.28453 3.3376 7.84148 3.0718 7.3535 2.98498" fill="#6B7280"/>
<path d="M10.15 4.52493e-05C9.64706 0.00166372 9.15389 0.146309 8.72262 0.418686C8.29136 0.691063 7.93803 1.08105 7.7 1.54741C8.49007 1.7183 9.19999 2.17074 9.71005 2.82845C10.2201 3.48616 10.4991 4.3089 10.5 5.15792C10.4988 5.39556 10.4754 5.6325 10.43 5.86529C11.1457 5.7936 11.8076 5.43405 12.2778 4.86152C12.7481 4.28899 12.9903 3.5476 12.9543 2.79174C12.9182 2.03587 12.6065 1.32379 12.0841 0.803764C11.5618 0.283737 10.869 -0.0041516 10.15 4.52493e-05Z" fill="#6B7280"/>
<path d="M5.1562 8.27623C4.55874 7.88237 4.08661 7.3097 3.8003 6.6316H3.5C2.57208 6.63277 1.68249 7.0213 1.02635 7.71197C0.370217 8.40264 0.0011115 9.33905 0 10.3158V11.7895C0 11.9849 0.0737497 12.1723 0.205025 12.3105C0.336301 12.4487 0.514348 12.5263 0.7 12.5263H2.1C2.1016 11.5646 2.40074 10.6295 2.95217 9.86271C3.50359 9.09587 4.27729 8.53896 5.1562 8.27623Z" fill="#6B7280"/>
<path d="M10.5 6.6316H10.1997C9.91339 7.3097 9.44126 7.88237 8.8438 8.27623C9.72271 8.53896 10.4964 9.09587 11.0478 9.86271C11.5993 10.6295 11.8984 11.5646 11.9 12.5263H13.3C13.4857 12.5263 13.6637 12.4487 13.795 12.3105C13.9263 12.1723 14 11.9849 14 11.7895V10.3158C13.9989 9.33905 13.6298 8.40264 12.9736 7.71197C12.3175 7.0213 11.4279 6.63277 10.5 6.6316Z" fill="#6B7280"/>
<path d="M3.5 5.15793C3.50089 4.3089 3.77988 3.48617 4.28995 2.82846C4.80001 2.17075 5.50993 1.7183 6.3 1.54741C6.07146 1.10073 5.73695 0.72395 5.32903 0.453735C4.9211 0.18352 4.45367 0.0290807 3.97221 0.00544972C3.49076 -0.0181813 3.0117 0.0898013 2.58166 0.318887C2.15162 0.547972 1.78525 0.890355 1.51822 1.31271C1.25118 1.73506 1.09258 2.223 1.05785 2.72902C1.02311 3.23504 1.11343 3.7419 1.32002 4.20028C1.5266 4.65865 1.84241 5.05292 2.23669 5.3447C2.63098 5.63648 3.09032 5.81583 3.57 5.86529C3.52461 5.6325 3.50116 5.39557 3.5 5.15793Z" fill="#6B7280"/>
</g>
</g>
<defs>
<clipPath id="clip0_550_41649">
<rect width="14" height="14" fill="white"/>
</clipPath>
</defs>
</svg>
