<svg width="10" height="4" viewBox="0 0 10 4" fill="none" xmlns="http://www.w3.org/2000/svg">
<g id="horizontal-menu-circle--navigation-dots-three-circle-button-horizontal-menu">
<g id="Group 2606">
<path id="Ellipse 1111" d="M2 2.25C1.86193 2.25 1.75 2.13807 1.75 2C1.75 1.86193 1.86193 1.75 2 1.75" stroke="#4D4D4F" stroke-width="2" stroke-linecap="round" stroke-linejoin="round"/>
<path id="Ellipse 1112" d="M2 2.25C2.13807 2.25 2.25 2.13807 2.25 2C2.25 1.86193 2.13807 1.75 2 1.75" stroke="#4D4D4F" stroke-width="2" stroke-linecap="round" stroke-linejoin="round"/>
</g>
<g id="Group 2632">
<path id="Ellipse 1111_2" d="M5 2.25C4.86193 2.25 4.75 2.13807 4.75 2C4.75 1.86193 4.86193 1.75 5 1.75" stroke="#4D4D4F" stroke-width="2" stroke-linecap="round" stroke-linejoin="round"/>
<path id="Ellipse 1112_2" d="M5 2.25C5.13807 2.25 5.25 2.13807 5.25 2C5.25 1.86193 5.13807 1.75 5 1.75" stroke="#4D4D4F" stroke-width="2" stroke-linecap="round" stroke-linejoin="round"/>
</g>
<g id="Group 2633">
<path id="Ellipse 1111_3" d="M8 2.25C7.86193 2.25 7.75 2.13807 7.75 2C7.75 1.86193 7.86193 1.75 8 1.75" stroke="#4D4D4F" stroke-width="2" stroke-linecap="round" stroke-linejoin="round"/>
<path id="Ellipse 1112_3" d="M8 2.25C8.1381 2.25 8.25 2.13807 8.25 2C8.25 1.86193 8.1381 1.75 8 1.75" stroke="#4D4D4F" stroke-width="2" stroke-linecap="round" stroke-linejoin="round"/>
</g>
</g>
</svg>
