<svg width="16" height="17" viewBox="0 0 16 17" fill="none" xmlns="http://www.w3.org/2000/svg">
<g id="thumbs-down">
<g id="Vector">
<path d="M14.3117 1.1665H13.4675C13.0197 1.1665 12.5903 1.33359 12.2737 1.631C11.957 1.92841 11.7792 2.33178 11.7792 2.75238V9.88884C11.7792 10.0991 11.8681 10.3008 12.0264 10.4495C12.1847 10.5982 12.3994 10.6818 12.6233 10.6818H15.1558C15.3797 10.6818 15.5944 10.5982 15.7527 10.4495C15.9111 10.3008 16 10.0991 16 9.88884V2.75238C16 2.33178 15.8221 1.92841 15.5055 1.631C15.1889 1.33359 14.7594 1.1665 14.3117 1.1665Z" fill="#6B7280"/>
<path d="M10.0908 3.24163H9.9946C8.21425 2.78014 5.85818 1.95944 3.67601 1.95944C2.49418 1.95944 2.3321 2.37653 2.08982 3.00295L0.101807 8.55353C0.00901737 8.79301 -0.0209617 9.04997 0.0144092 9.30265C0.0497801 9.55533 0.149459 9.79627 0.305004 10.0051C0.460548 10.2139 0.667376 10.3844 0.90797 10.5022C1.14856 10.62 1.41584 10.6816 1.68715 10.6818H5.02668L3.71315 14.25C3.67032 14.5765 3.75031 14.9068 3.93927 15.1837C4.12824 15.4607 4.4143 15.6669 4.74799 15.7667C5.08168 15.8665 5.44201 15.8536 5.76666 15.7303C6.09132 15.607 6.35989 15.3809 6.52592 15.0913C7.50084 13.5269 8.70135 12.0967 10.0934 10.8412L10.0908 3.24163Z" fill="#6B7280"/>
</g>
</g>
</svg>
