<svg width="16" height="17" viewBox="0 0 16 17" fill="none" xmlns="http://www.w3.org/2000/svg">
<g id="thumbs-down">
<g id="Vector">
<path d="M14.3117 1.16669H13.4675C13.0197 1.16669 12.5903 1.33377 12.2737 1.63118C11.957 1.92859 11.7792 2.33197 11.7792 2.75257V9.88902C11.7792 10.0993 11.8681 10.301 12.0264 10.4497C12.1847 10.5984 12.3994 10.682 12.6233 10.682H15.1558C15.3797 10.682 15.5944 10.5984 15.7527 10.4497C15.9111 10.301 16 10.0993 16 9.88902V2.75257C16 2.33197 15.8221 1.92859 15.5055 1.63118C15.1889 1.33377 14.7594 1.16669 14.3117 1.16669Z" fill="#C81E1E"/>
<path d="M10.0908 3.24181H9.9946C8.21425 2.78032 5.85818 1.95963 3.67601 1.95963C2.49418 1.95963 2.3321 2.37671 2.08982 3.00314L0.101807 8.55371C0.00901737 8.7932 -0.0209617 9.05016 0.0144092 9.30283C0.0497801 9.55551 0.149459 9.79646 0.305004 10.0053C0.460548 10.2141 0.667376 10.3846 0.907971 10.5024C1.14856 10.6202 1.41584 10.6818 1.68715 10.682H5.02668L3.71315 14.2502C3.67032 14.5767 3.75031 14.9069 3.93927 15.1839C4.12824 15.4608 4.4143 15.667 4.74799 15.7669C5.08168 15.8667 5.44201 15.8538 5.76667 15.7305C6.09132 15.6071 6.35989 15.3811 6.52592 15.0915C7.50084 13.5271 8.70135 12.0968 10.0934 10.8413L10.0908 3.24181Z" fill="#C81E1E"/>
</g>
</g>
</svg>
