<svg width="16" height="17" viewBox="0 0 16 17" fill="none" xmlns="http://www.w3.org/2000/svg">
<g id="trash" clip-path="url(#clip0_2278_11900)">
<path id="Vector" d="M14.5188 3.86842H11.2596V2.18421C11.2596 1.73753 11.0879 1.30914 10.7823 0.993294C10.4767 0.677443 10.0622 0.5 9.62996 0.5H6.3707C5.93849 0.5 5.52399 0.677443 5.21837 0.993294C4.91276 1.30914 4.74107 1.73753 4.74107 2.18421V3.86842H1.48181C1.2657 3.86842 1.05845 3.95714 0.905646 4.11507C0.752838 4.27299 0.666992 4.48719 0.666992 4.71053C0.666992 4.93387 0.752838 5.14806 0.905646 5.30598C1.05845 5.46391 1.2657 5.55263 1.48181 5.55263H2.29662V14.8158C2.29662 15.2625 2.46831 15.6909 2.77393 16.0067C3.07954 16.3226 3.49405 16.5 3.92625 16.5H12.0744C12.5066 16.5 12.9211 16.3226 13.2267 16.0067C13.5323 15.6909 13.704 15.2625 13.704 14.8158V5.55263H14.5188C14.7349 5.55263 14.9422 5.46391 15.095 5.30598C15.2478 5.14806 15.3337 4.93387 15.3337 4.71053C15.3337 4.48719 15.2478 4.27299 15.095 4.11507C14.9422 3.95714 14.7349 3.86842 14.5188 3.86842ZM6.3707 2.18421H9.62996V3.86842H6.3707V2.18421ZM7.18551 13.1316C7.18551 13.3549 7.09966 13.5691 6.94686 13.727C6.79405 13.885 6.5868 13.9737 6.3707 13.9737C6.15459 13.9737 5.94734 13.885 5.79453 13.727C5.64173 13.5691 5.55588 13.3549 5.55588 13.1316V7.23684C5.55588 7.0135 5.64173 6.79931 5.79453 6.64138C5.94734 6.48346 6.15459 6.39474 6.3707 6.39474C6.5868 6.39474 6.79405 6.48346 6.94686 6.64138C7.09966 6.79931 7.18551 7.0135 7.18551 7.23684V13.1316ZM10.4448 13.1316C10.4448 13.3549 10.3589 13.5691 10.2061 13.727C10.0533 13.885 9.84606 13.9737 9.62996 13.9737C9.41385 13.9737 9.2066 13.885 9.05379 13.727C8.90099 13.5691 8.81514 13.3549 8.81514 13.1316V7.23684C8.81514 7.0135 8.90099 6.79931 9.05379 6.64138C9.2066 6.48346 9.41385 6.39474 9.62996 6.39474C9.84606 6.39474 10.0533 6.48346 10.2061 6.64138C10.3589 6.79931 10.4448 7.0135 10.4448 7.23684V13.1316Z" fill="#C81E1E"/>
</g>
<defs>
<clipPath id="clip0_2278_11900">
<rect width="16" height="16" fill="white" transform="translate(0 0.5)"/>
</clipPath>
</defs>
</svg>
