<svg width="16" height="12" viewBox="0 0 16 12" fill="none" xmlns="http://www.w3.org/2000/svg">
<g id="flags / US">
<rect id="Mask" y="0.400391" width="16" height="11.2" rx="2" fill="white"/>
<mask id="mask0_2050_3512" style="mask-type:luminance" maskUnits="userSpaceOnUse" x="0" y="0" width="16" height="12">
<rect id="Mask_2" y="0.400391" width="16" height="11.2" rx="2" fill="white"/>
</mask>
<g mask="url(#mask0_2050_3512)">
<path id="Rectangle 511" fill-rule="evenodd" clip-rule="evenodd" d="M16 0.400391H0V1.14706H16V0.400391ZM16 1.89372H0V2.64039H16V1.89372ZM0 3.38706H16V4.13372H0V3.38706ZM16 4.88039H0V5.62706H16V4.88039ZM0 6.37372H16V7.12039H0V6.37372ZM16 7.86706H0V8.61372H16V7.86706ZM0 9.36039H16V10.1071H0V9.36039ZM16 10.8537H0V11.6004H16V10.8537Z" fill="#D02F44"/>
<rect id="Rectangle 511_2" y="0.400391" width="6.85714" height="5.22667" fill="#46467F"/>
<g id="Oval 43" filter="url(#filter0_d_2050_3512)">
<path fill-rule="evenodd" clip-rule="evenodd" d="M1.52362 1.52079C1.52362 1.72698 1.35307 1.89413 1.14267 1.89413C0.932277 1.89413 0.761719 1.72698 0.761719 1.52079C0.761719 1.31461 0.932277 1.14746 1.14267 1.14746C1.35307 1.14746 1.52362 1.31461 1.52362 1.52079ZM3.04743 1.52079C3.04743 1.72698 2.87687 1.89413 2.66648 1.89413C2.45609 1.89413 2.28553 1.72698 2.28553 1.52079C2.28553 1.31461 2.45609 1.14746 2.66648 1.14746C2.87687 1.14746 3.04743 1.31461 3.04743 1.52079ZM4.19029 1.89413C4.40068 1.89413 4.57124 1.72698 4.57124 1.52079C4.57124 1.31461 4.40068 1.14746 4.19029 1.14746C3.9799 1.14746 3.80934 1.31461 3.80934 1.52079C3.80934 1.72698 3.9799 1.89413 4.19029 1.89413ZM6.09505 1.52079C6.09505 1.72698 5.92449 1.89413 5.7141 1.89413C5.50371 1.89413 5.33315 1.72698 5.33315 1.52079C5.33315 1.31461 5.50371 1.14746 5.7141 1.14746C5.92449 1.14746 6.09505 1.31461 6.09505 1.52079ZM1.90458 2.64079C2.11497 2.64079 2.28553 2.47365 2.28553 2.26746C2.28553 2.06127 2.11497 1.89413 1.90458 1.89413C1.69418 1.89413 1.52362 2.06127 1.52362 2.26746C1.52362 2.47365 1.69418 2.64079 1.90458 2.64079ZM3.80934 2.26746C3.80934 2.47365 3.63878 2.64079 3.42839 2.64079C3.21799 2.64079 3.04743 2.47365 3.04743 2.26746C3.04743 2.06127 3.21799 1.89413 3.42839 1.89413C3.63878 1.89413 3.80934 2.06127 3.80934 2.26746ZM4.9522 2.64079C5.16259 2.64079 5.33315 2.47365 5.33315 2.26746C5.33315 2.06127 5.16259 1.89413 4.9522 1.89413C4.7418 1.89413 4.57124 2.06127 4.57124 2.26746C4.57124 2.47365 4.7418 2.64079 4.9522 2.64079ZM6.09505 3.01413C6.09505 3.22031 5.92449 3.38746 5.7141 3.38746C5.50371 3.38746 5.33315 3.22031 5.33315 3.01413C5.33315 2.80794 5.50371 2.64079 5.7141 2.64079C5.92449 2.64079 6.09505 2.80794 6.09505 3.01413ZM4.19029 3.38746C4.40068 3.38746 4.57124 3.22031 4.57124 3.01413C4.57124 2.80794 4.40068 2.64079 4.19029 2.64079C3.9799 2.64079 3.80934 2.80794 3.80934 3.01413C3.80934 3.22031 3.9799 3.38746 4.19029 3.38746ZM3.04743 3.01413C3.04743 3.22031 2.87687 3.38746 2.66648 3.38746C2.45609 3.38746 2.28553 3.22031 2.28553 3.01413C2.28553 2.80794 2.45609 2.64079 2.66648 2.64079C2.87687 2.64079 3.04743 2.80794 3.04743 3.01413ZM1.14267 3.38746C1.35307 3.38746 1.52362 3.22031 1.52362 3.01413C1.52362 2.80794 1.35307 2.64079 1.14267 2.64079C0.932277 2.64079 0.761719 2.80794 0.761719 3.01413C0.761719 3.22031 0.932277 3.38746 1.14267 3.38746ZM2.28553 3.76079C2.28553 3.96698 2.11497 4.13413 1.90458 4.13413C1.69418 4.13413 1.52362 3.96698 1.52362 3.76079C1.52362 3.55461 1.69418 3.38746 1.90458 3.38746C2.11497 3.38746 2.28553 3.55461 2.28553 3.76079ZM3.42839 4.13413C3.63878 4.13413 3.80934 3.96698 3.80934 3.76079C3.80934 3.55461 3.63878 3.38746 3.42839 3.38746C3.21799 3.38746 3.04743 3.55461 3.04743 3.76079C3.04743 3.96698 3.21799 4.13413 3.42839 4.13413ZM5.33315 3.76079C5.33315 3.96698 5.16259 4.13413 4.9522 4.13413C4.7418 4.13413 4.57124 3.96698 4.57124 3.76079C4.57124 3.55461 4.7418 3.38746 4.9522 3.38746C5.16259 3.38746 5.33315 3.55461 5.33315 3.76079ZM5.7141 4.88079C5.92449 4.88079 6.09505 4.71365 6.09505 4.50746C6.09505 4.30128 5.92449 4.13413 5.7141 4.13413C5.50371 4.13413 5.33315 4.30128 5.33315 4.50746C5.33315 4.71365 5.50371 4.88079 5.7141 4.88079ZM4.57124 4.50746C4.57124 4.71365 4.40068 4.88079 4.19029 4.88079C3.9799 4.88079 3.80934 4.71365 3.80934 4.50746C3.80934 4.30128 3.9799 4.13413 4.19029 4.13413C4.40068 4.13413 4.57124 4.30128 4.57124 4.50746ZM2.66648 4.88079C2.87687 4.88079 3.04743 4.71365 3.04743 4.50746C3.04743 4.30128 2.87687 4.13413 2.66648 4.13413C2.45609 4.13413 2.28553 4.30128 2.28553 4.50746C2.28553 4.71365 2.45609 4.88079 2.66648 4.88079ZM1.52362 4.50746C1.52362 4.71365 1.35307 4.88079 1.14267 4.88079C0.932277 4.88079 0.761719 4.71365 0.761719 4.50746C0.761719 4.30128 0.932277 4.13413 1.14267 4.13413C1.35307 4.13413 1.52362 4.30128 1.52362 4.50746Z" fill="url(#paint0_linear_2050_3512)"/>
</g>
</g>
</g>
<defs>
<filter id="filter0_d_2050_3512" x="0.761719" y="1.14746" width="5.33398" height="4.7334" filterUnits="userSpaceOnUse" color-interpolation-filters="sRGB">
<feFlood flood-opacity="0" result="BackgroundImageFix"/>
<feColorMatrix in="SourceAlpha" type="matrix" values="0 0 0 0 0 0 0 0 0 0 0 0 0 0 0 0 0 0 127 0" result="hardAlpha"/>
<feOffset dy="1"/>
<feColorMatrix type="matrix" values="0 0 0 0 0 0 0 0 0 0 0 0 0 0 0 0 0 0 0.06 0"/>
<feBlend mode="normal" in2="BackgroundImageFix" result="effect1_dropShadow_2050_3512"/>
<feBlend mode="normal" in="SourceGraphic" in2="effect1_dropShadow_2050_3512" result="shape"/>
</filter>
<linearGradient id="paint0_linear_2050_3512" x1="0.761719" y1="1.14746" x2="0.761719" y2="4.88079" gradientUnits="userSpaceOnUse">
<stop stop-color="white"/>
<stop offset="1" stop-color="#F0F0F0"/>
</linearGradient>
</defs>
</svg>
