<svg width="20" height="20" viewBox="0 0 20 20" fill="none" xmlns="http://www.w3.org/2000/svg">
<g id="user">
<g id="Vector">
<path d="M10 9.47368C12.8676 9.47368 15.1923 7.35293 15.1923 4.73684C15.1923 2.12076 12.8676 0 10 0C7.13237 0 4.80769 2.12076 4.80769 4.73684C4.80769 7.35293 7.13237 9.47368 10 9.47368Z" fill="#1F2A37"/>
<path d="M11.7308 10.5263H8.26923C6.7397 10.528 5.27334 11.083 4.19179 12.0697C3.11025 13.0564 2.50183 14.3941 2.5 15.7895V18.9474C2.5 19.2265 2.62157 19.4943 2.83795 19.6917C3.05434 19.8891 3.34783 20 3.65385 20H16.3462C16.6522 20 16.9457 19.8891 17.162 19.6917C17.3784 19.4943 17.5 19.2265 17.5 18.9474V15.7895C17.4982 14.3941 16.8898 13.0564 15.8082 12.0697C14.7267 11.083 13.2603 10.528 11.7308 10.5263Z" fill="#1F2A37"/>
</g>
</g>
</svg>
