<svg width="16" height="17" viewBox="0 0 16 17" fill="none" xmlns="http://www.w3.org/2000/svg">
<g id="x-circle" clip-path="url(#clip0_2278_12451)">
<path id="Vector" d="M8 0.5C6.41775 0.5 4.87103 0.969192 3.55544 1.84824C2.23985 2.72729 1.21447 3.97672 0.608967 5.43853C0.00346627 6.90034 -0.15496 8.50887 0.153721 10.0607C0.462403 11.6126 1.22433 13.038 2.34315 14.1569C3.46197 15.2757 4.88743 16.0376 6.43928 16.3463C7.99113 16.655 9.59966 16.4965 11.0615 15.891C12.5233 15.2855 13.7727 14.2602 14.6518 12.9446C15.5308 11.629 16 10.0822 16 8.5C15.9977 6.37898 15.1541 4.3455 13.6543 2.84572C12.1545 1.34593 10.121 0.502329 8 0.5ZM10.9656 10.3344C11.042 10.4082 11.103 10.4965 11.1449 10.5941C11.1868 10.6917 11.2089 10.7967 11.2098 10.9029C11.2107 11.0091 11.1905 11.1144 11.1503 11.2128C11.11 11.3111 11.0506 11.4004 10.9755 11.4755C10.9004 11.5506 10.8111 11.61 10.7128 11.6503C10.6144 11.6905 10.5091 11.7107 10.4029 11.7098C10.2967 11.7089 10.1917 11.6868 10.0941 11.6449C9.99648 11.603 9.9082 11.542 9.8344 11.4656L8 9.6312L6.1656 11.4656C6.01472 11.6113 5.81264 11.692 5.60288 11.6901C5.39312 11.6883 5.19247 11.6042 5.04415 11.4559C4.89582 11.3075 4.81169 11.1069 4.80986 10.8971C4.80804 10.6874 4.88868 10.4853 5.0344 10.3344L6.8688 8.5L5.0344 6.6656C4.88868 6.51472 4.80804 6.31264 4.80986 6.10288C4.81169 5.89312 4.89582 5.69247 5.04415 5.54414C5.19247 5.39582 5.39312 5.31168 5.60288 5.30986C5.81264 5.30804 6.01472 5.38867 6.1656 5.5344L8 7.3688L9.8344 5.5344C9.98528 5.38867 10.1874 5.30804 10.3971 5.30986C10.6069 5.31168 10.8075 5.39582 10.9559 5.54414C11.1042 5.69247 11.1883 5.89312 11.1901 6.10288C11.192 6.31264 11.1113 6.51472 10.9656 6.6656L9.1312 8.5L10.9656 10.3344Z" fill="#C81E1E"/>
</g>
<defs>
<clipPath id="clip0_2278_12451">
<rect width="16" height="16" fill="white" transform="translate(0 0.5)"/>
</clipPath>
</defs>
</svg>
