<svg width="8" height="8" viewBox="0 0 8 8" fill="none" xmlns="http://www.w3.org/2000/svg">
<g id="x" clip-path="url(#clip0_1847_8476)">
<path id="Vector" d="M4.80658 4L7.82586 0.980729C7.88034 0.928109 7.92379 0.865165 7.95369 0.795571C7.98358 0.725976 7.99932 0.651125 7.99998 0.575384C8.00064 0.499643 7.9862 0.424529 7.95752 0.354426C7.92884 0.284322 7.88648 0.220633 7.83292 0.167074C7.77937 0.113515 7.71568 0.0711592 7.64557 0.0424776C7.57547 0.013796 7.50036 -0.000636631 7.42462 2.15376e-05C7.34888 0.000679706 7.27402 0.0164157 7.20443 0.0463112C7.13483 0.0762067 7.07189 0.119663 7.01927 0.174145L4 3.19342L0.980729 0.174145C0.873145 0.0702369 0.729054 0.0127408 0.57949 0.0140405C0.429925 0.0153401 0.286855 0.0753315 0.181093 0.181093C0.0753315 0.286855 0.0153401 0.429925 0.0140405 0.57949C0.0127408 0.729054 0.0702369 0.873145 0.174145 0.980729L3.19342 4L0.174145 7.01927C0.119663 7.07189 0.0762067 7.13483 0.0463112 7.20443C0.0164157 7.27402 0.000679706 7.34888 2.15376e-05 7.42462C-0.000636631 7.50036 0.013796 7.57547 0.0424776 7.64557C0.0711592 7.71568 0.113515 7.77937 0.167074 7.83292C0.220633 7.88648 0.284322 7.92884 0.354426 7.95752C0.424529 7.9862 0.499643 8.00064 0.575384 7.99998C0.651125 7.99932 0.725976 7.98358 0.795571 7.95369C0.865165 7.92379 0.928109 7.88034 0.980729 7.82586L4 4.80658L7.01927 7.82586C7.12685 7.92976 7.27095 7.98726 7.42051 7.98596C7.57007 7.98466 7.71314 7.92467 7.81891 7.81891C7.92467 7.71314 7.98466 7.57007 7.98596 7.42051C7.98726 7.27095 7.92976 7.12685 7.82586 7.01927L4.80658 4Z" fill="#6B7280"/>
</g>
<defs>
<clipPath id="clip0_1847_8476">
<rect width="8" height="8" fill="white"/>
</clipPath>
</defs>
</svg>
